le-murmure.ufo
<glyph name="exclam" format="2">
	<advance width="136"/>
	<unicode hex="0021"/>
	<outline>
		<contour>
			<point x="111" y="730" type="line"/>
			<point x="25" y="730" type="line"/>
			<point x="60" y="70" type="line"/>
			<point x="76" y="70" type="line"/>
		</contour>
		<component base="period"/>
	</outline>
</glyph>
<glyph name="dollar" format="2">
	<advance width="243"/>
	<unicode hex="0024"/>
	<outline>
		<contour>
			<point x="150" y="760" type="line"/>
			<point x="150" y="367" type="line"/>
			<point x="130" y="367" type="line"/>
			<point x="130" y="760" type="line"/>
		</contour>
		<contour>
			<point x="109" y="359" type="line"/>
			<point x="109" y="-34" type="line"/>
			<point x="89" y="-34" type="line"/>
			<point x="89" y="359" type="line"/>
		</contour>
		<contour>
			<point x="226" y="113" type="curve" smooth="yes"/>
			<point x="226" y="27"/>
			<point x="173" y="-10"/>
			<point x="110" y="-10" type="curve"/>
			<point x="51" y="-10"/>
			<point x="23" y="21"/>
			<point x="23" y="83" type="curve"/>
			<point x="23" y="147"/>
			<point x="25" y="220"/>
			<point x="34" y="275" type="curve"/>
			<point x="106" y="275" type="line"/>
			<point x="92" y="226" type="line"/>
			<point x="82" y="226" type="line"/>
			<point x="55" y="165"/>
			<point x="42" y="121"/>
			<point x="42" y="95" type="curve"/>
			<point x="42" y="66"/>
			<point x="61" y="58"/>
			<point x="110" y="58" type="curve"/>
			<point x="143" y="58"/>
			<point x="151" y="78"/>
			<point x="151" y="104" type="curve"/>
			<point x="151" y="161"/>
			<point x="121" y="246"/>
			<point x="116" y="314" type="curve"/>
			<point x="105" y="314" type="line"/>
			<point x="96" y="321" type="line"/>
			<point x="60" y="425"/>
			<point x="18" y="533"/>
			<point x="18" y="614" type="curve"/>
			<point x="18" y="703"/>
			<point x="71" y="740"/>
			<point x="134" y="740" type="curve"/>
			<point x="186" y="740"/>
			<point x="211" y="709"/>
			<point x="211" y="647" type="curve"/>
			<point x="211" y="609"/>
			<point x="211" y="533"/>
			<point x="200" y="465" type="curve"/>
			<point x="134" y="465" type="line"/>
			<point x="147" y="518" type="line"/>
			<point x="157" y="518" type="line"/>
			<point x="175" y="559"/>
			<point x="192" y="615"/>
			<point x="192" y="637" type="curve"/>
			<point x="192" y="664"/>
			<point x="176" y="672"/>
			<point x="134" y="672" type="curve"/>
			<point x="101" y="672"/>
			<point x="93" y="652"/>
			<point x="93" y="626" type="curve"/>
			<point x="93" y="578"/>
			<point x="119" y="494"/>
			<point x="122" y="420" type="curve"/>
			<point x="132" y="420" type="line"/>
			<point x="148" y="406" type="line"/>
			<point x="185" y="295"/>
			<point x="226" y="178"/>
		</contour>
	</outline>
</glyph>
<glyph name="ampersand" format="2">
	<advance width="349"/>
	<unicode hex="0026"/>
	<outline>
		<contour>
			<point x="236" y="406" type="curve"/>
			<point x="210" y="271" type="line"/>
			<point x="203" y="271" type="line"/>
			<point x="188" y="374" type="line"/>
			<point x="122" y="615" type="line" smooth="yes"/>
			<point x="112" y="650"/>
			<point x="130" y="672"/>
			<point x="164" y="672" type="curve"/>
			<point x="210" y="672"/>
			<point x="234" y="664"/>
			<point x="234" y="642" type="curve"/>
			<point x="234" y="623"/>
			<point x="220" y="596"/>
			<point x="160" y="490" type="curve"/>
			<point x="195" y="490" type="line" smooth="yes"/>
			<point x="234" y="490"/>
			<point x="249" y="473"/>
		</contour>
		<contour>
			<point x="332" y="490" type="line"/>
			<point x="246" y="490" type="line"/>
			<point x="252" y="561"/>
			<point x="253" y="611"/>
			<point x="253" y="647" type="curve"/>
			<point x="253" y="709"/>
			<point x="224" y="740"/>
			<point x="164" y="740" type="curve"/>
			<point x="101" y="740"/>
			<point x="23" y="702"/>
			<point x="48" y="605" type="curve"/>
			<point x="94" y="430" type="line"/>
			<point x="127" y="398" type="line"/>
			<point x="122" y="392" type="line"/>
			<point x="106" y="407"/>
			<point x="96" y="410"/>
			<point x="81" y="410" type="curve"/>
			<point x="46" y="410"/>
			<point x="20" y="384"/>
			<point x="20" y="288" type="curve" smooth="yes"/>
			<point x="20" y="71" type="line" smooth="yes"/>
			<point x="20" y="21"/>
			<point x="51" y="-10"/>
			<point x="94" y="-10" type="curve"/>
			<point x="136" y="-10"/>
			<point x="176" y="14"/>
			<point x="197" y="165" type="curve"/>
			<point x="183" y="218" type="line"/>
			<point x="171" y="88"/>
			<point x="155" y="58"/>
			<point x="128" y="58" type="curve"/>
			<point x="104" y="58"/>
			<point x="92" y="74"/>
			<point x="92" y="110" type="curve"/>
			<point x="92" y="267" type="line" smooth="yes"/>
			<point x="92" y="335"/>
			<point x="98" y="346"/>
			<point x="110" y="346" type="curve"/>
			<point x="122" y="346"/>
			<point x="131" y="338"/>
			<point x="143" y="326" type="curve"/>
			<point x="110" y="368" type="line"/>
			<point x="179" y="107" type="line"/>
			<point x="196" y="107" type="line"/>
			<point x="190" y="21"/>
			<point x="219" y="-10"/>
			<point x="262" y="-10" type="curve"/>
			<point x="317" y="-10"/>
			<point x="336" y="62"/>
			<point x="334" y="157" type="curve" smooth="yes"/>
			<point x="331" y="278" type="line"/>
			<point x="317" y="278" type="line"/>
			<point x="314" y="160" type="line" smooth="yes"/>
			<point x="312" y="96"/>
			<point x="307" y="58"/>
			<point x="290" y="58" type="curve"/>
			<point x="275" y="58"/>
			<point x="272" y="66"/>
			<point x="252" y="141" type="curve" smooth="yes"/>
			<point x="234" y="208" type="line" smooth="yes"/>
			<point x="224" y="246"/>
			<point x="232" y="278"/>
			<point x="245" y="330" type="curve"/>
			<point x="260" y="389"/>
			<point x="277" y="413"/>
			<point x="310" y="422" type="curve"/>
			<point x="332" y="428" type="line"/>
		</contour>
	</outline>
</glyph>
<glyph name="asterisk" format="2">
	<advance width="228"/>
	<unicode hex="002A"/>
	<outline>
		<contour>
			<point x="108" y="642" type="line"/>
			<point x="120" y="642" type="line"/>
			<point x="154" y="728" type="line"/>
			<point x="146" y="735" type="line"/>
			<point x="114" y="715" type="line"/>
			<point x="82" y="735" type="line"/>
			<point x="74" y="728" type="line"/>
		</contour>
		<contour>
			<point x="102" y="629" type="line"/>
			<point x="106" y="640" type="line"/>
			<point x="34" y="699" type="line"/>
			<point x="25" y="694" type="line"/>
			<point x="34" y="657" type="line"/>
			<point x="5" y="633" type="line"/>
			<point x="10" y="623" type="line"/>
		</contour>
		<contour>
			<point x="112" y="618" type="line"/>
			<point x="103" y="626" type="line"/>
			<point x="24" y="576" type="line"/>
			<point x="26" y="566" type="line"/>
			<point x="64" y="563" type="line"/>
			<point x="78" y="528" type="line"/>
			<point x="88" y="529" type="line"/>
		</contour>
		<contour>
			<point x="194" y="699" type="line"/>
			<point x="122" y="640" type="line"/>
			<point x="126" y="629" type="line"/>
			<point x="218" y="623" type="line"/>
			<point x="223" y="633" type="line"/>
			<point x="194" y="657" type="line"/>
			<point x="203" y="694" type="line"/>
		</contour>
		<contour>
			<point x="204" y="576" type="line"/>
			<point x="125" y="626" type="line"/>
			<point x="116" y="618" type="line"/>
			<point x="140" y="529" type="line"/>
			<point x="150" y="528" type="line"/>
			<point x="164" y="563" type="line"/>
			<point x="202" y="566" type="line"/>
		</contour>
		<contour>
			<point x="132" y="638" type="line"/>
			<point x="114" y="653" type="line"/>
			<point x="114" y="614" type="line"/>
			<point x="125" y="614" type="line"/>
		</contour>
		<contour>
			<point x="114" y="614" type="line"/>
			<point x="114" y="653" type="line"/>
			<point x="96" y="638" type="line"/>
			<point x="103" y="614" type="line"/>
		</contour>
	</outline>
</glyph>
<glyph name="plus" format="2">
	<advance width="298"/>
	<unicode hex="002B"/>
	<outline>
		<contour>
			<point x="268" y="365" type="line"/>
			<point x="268" y="297" type="line"/>
			<point x="149" y="326" type="line"/>
			<point x="149" y="336" type="line"/>
		</contour>
		<contour>
			<point x="149" y="326" type="line"/>
			<point x="30" y="297" type="line"/>
			<point x="30" y="365" type="line"/>
			<point x="149" y="336" type="line"/>
		</contour>
		<contour>
			<point x="115" y="450" type="line"/>
			<point x="183" y="450" type="line"/>
			<point x="154" y="331" type="line"/>
			<point x="144" y="331" type="line"/>
		</contour>
		<contour>
			<point x="154" y="331" type="line"/>
			<point x="183" y="212" type="line"/>
			<point x="115" y="212" type="line"/>
			<point x="144" y="331" type="line"/>
		</contour>
		<contour>
			<point x="173" y="331" type="line"/>
			<point x="148" y="306" type="line"/>
			<point x="124" y="330" type="line"/>
			<point x="149" y="355" type="line"/>
		</contour>
	</outline>
</glyph>
<glyph name="hyphen" format="2">
	<advance width="208"/>
	<unicode hex="002D"/>
	<outline>
		<contour>
			<point x="188" y="314" type="line"/>
			<point x="20" y="314" type="line"/>
			<point x="20" y="347" type="line"/>
			<point x="188" y="347" type="line"/>
		</contour>
	</outline>
</glyph>
<glyph name="slash" format="2">
	<advance width="231"/>
	<unicode hex="002F"/>
	<outline>
		<contour>
			<point x="150" y="730" type="line"/>
			<point x="231" y="730" type="line"/>
			<point x="56" y="0" type="line"/>
			<point x="0" y="0" type="line"/>
		</contour>
	</outline>
</glyph>
<glyph name="one" format="2">
	<advance width="146"/>
	<unicode hex="0031"/>
	<outline>
		<contour>
			<point x="116" y="741" type="line"/>
			<point x="116" y="506" type="line"/>
			<point x="116" y="0" type="line"/>
			<point x="46" y="0" type="line"/>
			<point x="46" y="580" type="line"/>
			<point x="0" y="580" type="line"/>
			<point x="0" y="600" type="line"/>
			<point x="17" y="600" type="line" smooth="yes"/>
			<point x="49" y="600"/>
			<point x="63" y="617"/>
			<point x="85" y="682" type="curve"/>
			<point x="105" y="741" type="line"/>
		</contour>
	</outline>
</glyph>
<glyph name="two" format="2">
	<advance width="261"/>
	<unicode hex="0032"/>
	<outline>
		<contour>
			<point x="121" y="48" type="line"/>
			<point x="16" y="0" type="line"/>
			<point x="94" y="261"/>
			<point x="159" y="375"/>
			<point x="159" y="504" type="curve"/>
			<point x="159" y="540"/>
			<point x="159" y="577"/>
			<point x="159" y="620" type="curve"/>
			<point x="159" y="664"/>
			<point x="150" y="672"/>
			<point x="113" y="672" type="curve"/>
			<point x="59" y="672"/>
			<point x="45" y="650"/>
			<point x="45" y="616" type="curve"/>
			<point x="45" y="576"/>
			<point x="60" y="538"/>
			<point x="137" y="460" type="curve"/>
			<point x="41" y="460" type="line"/>
			<point x="22" y="506"/>
			<point x="15" y="561"/>
			<point x="15" y="605" type="curve"/>
			<point x="15" y="668"/>
			<point x="68" y="740"/>
			<point x="137" y="740" type="curve"/>
			<point x="199" y="740"/>
			<point x="230" y="709"/>
			<point x="230" y="625" type="curve"/>
			<point x="230" y="586"/>
			<point x="230" y="552"/>
			<point x="230" y="520" type="curve"/>
			<point x="230" y="371"/>
			<point x="173" y="286"/>
			<point x="107" y="72" type="curve"/>
		</contour>
		<contour>
			<point x="16" y="0" type="line"/>
			<point x="40" y="65" type="line"/>
			<point x="241" y="65" type="line"/>
			<point x="241" y="0" type="line"/>
		</contour>
	</outline>
</glyph>
<glyph name="five" format="2">
	<advance width="251"/>
	<unicode hex="0035"/>
	<outline>
		<contour>
			<point x="41" y="665" type="line"/>
			<point x="41" y="730" type="line"/>
			<point x="221" y="730" type="line"/>
			<point x="221" y="665" type="line"/>
		</contour>
		<contour>
			<point x="219" y="427" type="curve"/>
			<point x="219" y="126" type="line"/>
			<point x="144" y="151" type="line"/>
			<point x="144" y="388" type="line"/>
			<point x="144" y="424"/>
			<point x="139" y="440"/>
			<point x="120" y="440" type="curve"/>
			<point x="88" y="440"/>
			<point x="63" y="385"/>
			<point x="45" y="308" type="curve"/>
			<point x="30" y="308" type="line"/>
			<point x="30" y="730" type="line"/>
			<point x="105" y="730" type="line"/>
			<point x="105" y="665" type="line"/>
			<point x="105" y="507" type="line"/>
			<point x="65" y="429" type="line"/>
			<point x="73" y="424" type="line"/>
			<point x="106" y="489"/>
			<point x="129" y="508"/>
			<point x="162" y="508" type="curve"/>
			<point x="192" y="508"/>
			<point x="219" y="477"/>
		</contour>
		<contour>
			<point x="144" y="151" type="curve"/>
			<point x="219" y="126" type="line"/>
			<point x="219" y="28"/>
			<point x="179" y="-10"/>
			<point x="121" y="-10" type="curve"/>
			<point x="52" y="-10"/>
			<point x="26" y="62"/>
			<point x="28" y="157" type="curve"/>
			<point x="31" y="278" type="line"/>
			<point x="45" y="278" type="line"/>
			<point x="48" y="160" type="line" smooth="yes"/>
			<point x="50" y="96"/>
			<point x="58" y="58"/>
			<point x="101" y="58" type="curve"/>
			<point x="127" y="58"/>
			<point x="144" y="76"/>
		</contour>
	</outline>
</glyph>
<glyph name="seven" format="2">
	<advance width="222"/>
	<unicode hex="0037"/>
	<anchor x="113" y="760" name="top"/>
	<outline>
		<contour>
			<point x="130" y="657" type="line"/>
			<point x="23" y="0" type="line"/>
			<point x="91" y="0" type="line"/>
			<point x="207" y="730" type="line"/>
			<point x="122" y="668" type="line"/>
		</contour>
		<contour>
			<point x="10" y="730" type="line"/>
			<point x="10" y="665" type="line"/>
			<point x="177" y="665" type="line"/>
			<point x="207" y="730" type="line"/>
		</contour>
	</outline>
</glyph>
<glyph name="eight" format="2">
	<advance width="290"/>
	<unicode hex="0038"/>
	<outline>
		<contour>
			<point x="250" y="623" type="curve"/>
			<point x="250" y="525" type="line" smooth="yes"/>
			<point x="250" y="431"/>
			<point x="221" y="391"/>
			<point x="163" y="384" type="curve"/>
			<point x="163" y="362" type="line"/>
			<point x="142" y="361" type="line"/>
			<point x="135" y="398" type="line"/>
			<point x="145" y="398" type="line" smooth="yes"/>
			<point x="168" y="398"/>
			<point x="175" y="421"/>
			<point x="175" y="465" type="curve"/>
			<point x="175" y="589" type="line"/>
			<point x="175" y="661"/>
			<point x="160" y="672"/>
			<point x="145" y="672" type="curve"/>
			<point x="121" y="672"/>
			<point x="115" y="650"/>
			<point x="115" y="614" type="curve"/>
			<point x="115" y="465" type="line" smooth="yes"/>
			<point x="115" y="421"/>
			<point x="122" y="398"/>
			<point x="145" y="398" type="curve"/>
			<point x="155" y="398" type="line"/>
			<point x="148" y="361" type="line"/>
			<point x="127" y="362" type="line"/>
			<point x="127" y="384" type="line"/>
			<point x="69" y="391"/>
			<point x="40" y="431"/>
			<point x="40" y="525" type="curve"/>
			<point x="40" y="604" type="line"/>
			<point x="37" y="702"/>
			<point x="89" y="740"/>
			<point x="152" y="740" type="curve"/>
			<point x="216" y="740"/>
			<point x="250" y="709"/>
		</contour>
		<contour>
			<point x="25" y="107" type="curve"/>
			<point x="25" y="235" type="line" smooth="yes"/>
			<point x="25" y="301"/>
			<point x="34" y="357"/>
			<point x="62" y="377" type="curve"/>
			<point x="83" y="373"/>
			<point x="103" y="372"/>
			<point x="127" y="376" type="curve"/>
			<point x="127" y="397" type="line"/>
			<point x="145" y="398" type="line"/>
			<point x="155" y="361" type="line"/>
			<point x="142" y="361" type="line" smooth="yes"/>
			<point x="112" y="361"/>
			<point x="100" y="340"/>
			<point x="100" y="295" type="curve"/>
			<point x="100" y="141" type="line"/>
			<point x="100" y="69"/>
			<point x="124" y="58"/>
			<point x="152" y="58" type="curve"/>
			<point x="183" y="58"/>
			<point x="190" y="80"/>
			<point x="190" y="116" type="curve"/>
			<point x="190" y="295" type="line" smooth="yes"/>
			<point x="190" y="340"/>
			<point x="178" y="361"/>
			<point x="148" y="361" type="curve"/>
			<point x="135" y="361" type="line"/>
			<point x="145" y="398" type="line"/>
			<point x="163" y="397" type="line"/>
			<point x="163" y="376" type="line"/>
			<point x="187" y="372"/>
			<point x="207" y="373"/>
			<point x="228" y="377" type="curve"/>
			<point x="256" y="357"/>
			<point x="265" y="301"/>
			<point x="265" y="235" type="curve"/>
			<point x="265" y="126" type="line"/>
			<point x="269" y="28"/>
			<point x="210" y="-10"/>
			<point x="140" y="-10" type="curve"/>
			<point x="66" y="-10"/>
			<point x="25" y="21"/>
		</contour>
	</outline>
</glyph>
<glyph name="nine" format="2">
	<advance width="266"/>
	<unicode hex="0039"/>
	<anchor x="98" y="0" name="bottom"/>
	<outline>
		<contour>
			<point x="161" y="528" type="curve"/>
			<point x="161" y="589" type="line"/>
			<point x="161" y="661"/>
			<point x="143" y="672"/>
			<point x="122" y="672" type="curve"/>
			<point x="100" y="672"/>
			<point x="95" y="650"/>
			<point x="95" y="615" type="curve"/>
			<point x="95" y="420" type="line" smooth="yes"/>
			<point x="95" y="384"/>
			<point x="102" y="368"/>
			<point x="118" y="368" type="curve"/>
			<point x="139" y="368"/>
			<point x="161" y="436"/>
		</contour>
		<contour>
			<point x="161" y="151" type="curve"/>
			<point x="161" y="321" type="line"/>
			<point x="184" y="473" type="line"/>
			<point x="174" y="475" type="line"/>
			<point x="153" y="325"/>
			<point x="122" y="300"/>
			<point x="86" y="300" type="curve"/>
			<point x="48" y="300"/>
			<point x="20" y="331"/>
			<point x="20" y="381" type="curve"/>
			<point x="20" y="605" type="line" smooth="yes"/>
			<point x="20" y="703"/>
			<point x="72" y="740"/>
			<point x="134" y="740" type="curve"/>
			<point x="200" y="740"/>
			<point x="236" y="709"/>
			<point x="236" y="623" type="curve"/>
			<point x="236" y="126" type="line"/>
			<point x="236" y="28"/>
			<point x="194" y="-10"/>
			<point x="117" y="-10" type="curve"/>
			<point x="62" y="-10"/>
			<point x="27" y="50"/>
			<point x="30" y="157" type="curve"/>
			<point x="33" y="268" type="line"/>
			<point x="47" y="268" type="line"/>
			<point x="50" y="160" type="line" smooth="yes"/>
			<point x="52" y="82"/>
			<point x="71" y="58"/>
			<point x="113" y="58" type="curve"/>
			<point x="142" y="58"/>
			<point x="161" y="76"/>
		</contour>
	</outline>
</glyph>
<glyph name="semicolon" format="2">
	<advance width="141"/>
	<unicode hex="003B"/>
	<outline>
		<contour>
			<point x="30" y="354" type="line"/>
			<point x="30" y="283" type="line"/>
			<point x="116" y="283" type="line"/>
			<point x="116" y="354" type="line"/>
		</contour>
		<component base="comma" xOffset="5"/>
	</outline>
</glyph>
<glyph name="less" format="2">
	<advance width="303"/>
	<unicode hex="003C"/>
	<outline>
		<contour>
			<point x="303" y="0" type="line"/>
			<point x="193" y="0" type="line"/>
			<point x="10" y="286" type="line"/>
			<point x="10" y="292" type="line"/>
			<point x="55" y="309" type="line"/>
		</contour>
		<contour>
			<point x="10" y="298" type="line"/>
			<point x="183" y="600" type="line"/>
			<point x="303" y="600" type="line"/>
			<point x="55" y="309" type="line"/>
			<point x="10" y="292" type="line"/>
		</contour>
	</outline>
</glyph>
<glyph name="question" format="2">
	<advance width="209"/>
	<unicode hex="003F"/>
	<outline>
		<contour>
			<point x="104" y="70" type="curve"/>
			<point x="120" y="70" type="line"/>
			<point x="104" y="222"/>
			<point x="204" y="432"/>
			<point x="204" y="576" type="curve"/>
			<point x="204" y="659" type="line"/>
			<point x="204" y="709"/>
			<point x="175" y="740"/>
			<point x="117" y="740" type="curve"/>
			<point x="54" y="740"/>
			<point x="5" y="668"/>
			<point x="5" y="605" type="curve"/>
			<point x="5" y="561"/>
			<point x="12" y="506"/>
			<point x="31" y="460" type="curve"/>
			<point x="127" y="460" type="line"/>
			<point x="48" y="540"/>
			<point x="30" y="576"/>
			<point x="30" y="616" type="curve"/>
			<point x="30" y="650"/>
			<point x="43" y="672"/>
			<point x="93" y="672" type="curve"/>
			<point x="126" y="672"/>
			<point x="134" y="664"/>
			<point x="134" y="633" type="curve"/>
			<point x="134" y="561" type="line" smooth="yes"/>
			<point x="134" y="431"/>
			<point x="90" y="185"/>
		</contour>
		<component base="period" xOffset="44"/>
	</outline>
</glyph>
<glyph name="at" format="2">
	<advance width="557"/>
	<unicode hex="0040"/>
	<outline>
		<contour>
			<point x="241" y="446" type="curve"/>
			<point x="241" y="110" type="line" smooth="yes"/>
			<point x="241" y="74"/>
			<point x="250" y="58"/>
			<point x="267" y="58" type="curve"/>
			<point x="289" y="58"/>
			<point x="312" y="126"/>
			<point x="312" y="218" type="curve"/>
			<point x="312" y="526" type="line"/>
			<point x="299" y="539"/>
			<point x="285" y="546"/>
			<point x="269" y="546" type="curve"/>
			<point x="250" y="546"/>
			<point x="241" y="532"/>
		</contour>
		<contour>
			<point x="414" y="-10" type="curve" smooth="yes"/>
			<point x="355" y="-10"/>
			<point x="315" y="12"/>
			<point x="327" y="98" type="curve"/>
			<point x="336" y="163" type="line"/>
			<point x="326" y="165" type="line"/>
			<point x="305" y="15"/>
			<point x="271" y="-10"/>
			<point x="233" y="-10" type="curve"/>
			<point x="196" y="-10"/>
			<point x="169" y="21"/>
			<point x="169" y="71" type="curve"/>
			<point x="169" y="440" type="line" smooth="yes"/>
			<point x="169" y="560"/>
			<point x="198" y="610"/>
			<point x="262" y="610" type="curve"/>
			<point x="304" y="610"/>
			<point x="343" y="586"/>
			<point x="373" y="551" type="curve"/>
			<point x="382" y="553" type="line"/>
			<point x="388" y="600" type="line"/>
			<point x="402" y="600" type="line"/>
			<point x="382" y="436" type="line"/>
			<point x="382" y="121" type="line" smooth="yes"/>
			<point x="382" y="72"/>
			<point x="393" y="50"/>
			<point x="422" y="50" type="curve"/>
			<point x="440" y="50"/>
			<point x="457" y="74"/>
			<point x="457" y="133" type="curve"/>
			<point x="457" y="540" type="line" smooth="yes"/>
			<point x="457" y="660"/>
			<point x="385" y="681"/>
			<point x="278" y="681" type="curve"/>
			<point x="148" y="681"/>
			<point x="99" y="649"/>
			<point x="99" y="551" type="curve"/>
			<point x="99" y="48" type="line" smooth="yes"/>
			<point x="99" y="-47"/>
			<point x="165" y="-71"/>
			<point x="237" y="-71" type="curve"/>
			<point x="315" y="-71"/>
			<point x="378" y="-67"/>
			<point x="462" y="-46" type="curve"/>
			<point x="464" y="-58" type="line"/>
			<point x="355" y="-81"/>
			<point x="303" y="-130"/>
			<point x="210" y="-130" type="curve"/>
			<point x="115" y="-130"/>
			<point x="35" y="-96"/>
			<point x="35" y="48" type="curve"/>
			<point x="35" y="530" type="line" smooth="yes"/>
			<point x="35" y="693"/>
			<point x="114" y="740"/>
			<point x="282" y="740" type="curve"/>
			<point x="456" y="740"/>
			<point x="522" y="695"/>
			<point x="522" y="545" type="curve"/>
			<point x="522" y="166" type="line" smooth="yes"/>
			<point x="522" y="41"/>
			<point x="476" y="-10"/>
		</contour>
	</outline>
</glyph>
<glyph name="A" format="2">
	<advance width="288"/>
	<unicode hex="0041"/>
	<anchor x="137" y="760" name="top"/>
	<anchor x="288" y="0" name="bottom_right"/>
	<outline>
		<contour>
			<point x="288" y="0" type="line"/>
			<point x="204" y="0" type="line"/>
			<point x="157" y="370" type="line"/>
			<point x="138" y="570" type="line"/>
			<point x="127" y="570" type="line"/>
			<point x="111" y="628" type="line"/>
			<point x="67" y="730" type="line"/>
			<point x="166" y="730" type="line"/>
		</contour>
		<contour>
			<point x="127" y="570" type="line"/>
			<point x="90" y="0" type="line"/>
			<point x="0" y="0" type="line"/>
			<point x="128" y="730" type="line"/>
			<point x="156" y="730" type="line"/>
		</contour>
		<contour>
			<point x="180" y="205" type="line"/>
			<point x="86" y="205" type="line"/>
			<point x="86" y="225" type="line"/>
			<point x="180" y="225" type="line"/>
		</contour>
	</outline>
</glyph>
<glyph name="C" format="2">
	<advance width="236"/>
	<unicode hex="0043"/>
	<anchor x="118" y="0" name="bottom"/>
	<outline>
		<contour>
			<point x="195" y="642" type="curve" smooth="yes"/>
			<point x="195" y="664"/>
			<point x="179" y="672"/>
			<point x="137" y="672" type="curve"/>
			<point x="111" y="672"/>
			<point x="105" y="650"/>
			<point x="105" y="615" type="curve"/>
			<point x="105" y="141" type="line" smooth="yes"/>
			<point x="105" y="69"/>
			<point x="126" y="58"/>
			<point x="146" y="58" type="curve"/>
			<point x="172" y="58"/>
			<point x="182" y="96"/>
			<point x="184" y="160" type="curve"/>
			<point x="187" y="278" type="line"/>
			<point x="201" y="278" type="line"/>
			<point x="204" y="157" type="line" smooth="yes"/>
			<point x="206" y="62"/>
			<point x="177" y="-10"/>
			<point x="117" y="-10" type="curve"/>
			<point x="60" y="-10"/>
			<point x="30" y="21"/>
			<point x="30" y="107" type="curve"/>
			<point x="30" y="605" type="line" smooth="yes"/>
			<point x="30" y="703"/>
			<point x="79" y="740"/>
			<point x="137" y="740" type="curve"/>
			<point x="189" y="740"/>
			<point x="214" y="709"/>
			<point x="214" y="647" type="curve"/>
			<point x="214" y="596"/>
			<point x="212" y="526"/>
			<point x="194" y="425" type="curve"/>
			<point x="118" y="425" type="line"/>
			<point x="188" y="575"/>
			<point x="195" y="614"/>
		</contour>
	</outline>
</glyph>
<glyph name="D" format="2">
	<advance width="286"/>
	<unicode hex="0044"/>
	<anchor x="127" y="760" name="top"/>
	<outline>
		<contour>
			<point x="30" y="730" type="line"/>
			<point x="105" y="730" type="line"/>
			<point x="105" y="0" type="line"/>
			<point x="30" y="0" type="line"/>
		</contour>
		<contour>
			<point x="62" y="68" type="line"/>
			<point x="120" y="68" type="line"/>
			<point x="169" y="68"/>
			<point x="181" y="90"/>
			<point x="181" y="125" type="curve"/>
			<point x="181" y="579" type="line" smooth="yes"/>
			<point x="181" y="644"/>
			<point x="163" y="662"/>
			<point x="113" y="662" type="curve"/>
			<point x="113" y="662"/>
			<point x="71" y="662"/>
			<point x="71" y="662" type="curve"/>
			<point x="71" y="730" type="line"/>
			<point x="120" y="730" type="line" smooth="yes"/>
			<point x="206" y="730"/>
			<point x="256" y="695"/>
			<point x="256" y="604" type="curve"/>
			<point x="256" y="135" type="line" smooth="yes"/>
			<point x="256" y="37"/>
			<point x="188" y="0"/>
			<point x="107" y="0" type="curve"/>
			<point x="107" y="0"/>
			<point x="62" y="0"/>
			<point x="62" y="0" type="curve"/>
		</contour>
	</outline>
</glyph>
<glyph name="I" format="2">
	<advance width="135"/>
	<unicode hex="0049"/>
	<anchor x="67" y="760" name="top"/>
	<anchor x="105" y="0" name="bottom_right"/>
	<outline>
		<contour>
			<point x="30" y="730" type="line"/>
			<point x="105" y="730" type="line"/>
			<point x="105" y="0" type="line"/>
			<point x="30" y="0" type="line"/>
		</contour>
	</outline>
</glyph>
<glyph name="J" format="2">
	<advance width="145"/>
	<unicode hex="004A"/>
	<outline>
		<contour>
			<point x="35" y="-19" type="curve"/>
			<point x="35" y="730" type="line"/>
			<point x="110" y="730" type="line"/>
			<point x="110" y="139" type="line" smooth="yes"/>
			<point x="110" y="-17"/>
			<point x="10" y="-130"/>
			<point x="-67" y="-130" type="curve"/>
			<point x="-89" y="-130" type="line"/>
			<point x="-89" y="-43" type="line"/>
			<point x="-71" y="-51"/>
			<point x="-45" y="-57"/>
			<point x="-13" y="-57" type="curve"/>
			<point x="16" y="-57"/>
			<point x="35" y="-49"/>
		</contour>
	</outline>
</glyph>
<glyph name="L" format="2">
	<advance width="223"/>
	<unicode hex="004C"/>
	<outline>
		<contour>
			<point x="30" y="730" type="line"/>
			<point x="30" y="0" type="line"/>
			<point x="105" y="0" type="line"/>
			<point x="105" y="730" type="line"/>
		</contour>
		<contour>
			<point x="41" y="65" type="line"/>
			<point x="41" y="0" type="line"/>
			<point x="213" y="0" type="line"/>
			<point x="213" y="65" type="line"/>
		</contour>
	</outline>
</glyph>
<glyph name="M" format="2">
	<advance width="357"/>
	<unicode hex="004D"/>
	<outline>
		<contour>
			<point x="35" y="730" type="line"/>
			<point x="105" y="730" type="line"/>
			<point x="100" y="522" type="line"/>
			<point x="77" y="522" type="line"/>
			<point x="104" y="0" type="line"/>
			<point x="25" y="0" type="line"/>
		</contour>
		<contour>
			<point x="51" y="730" type="line"/>
			<point x="110" y="730" type="line"/>
			<point x="190" y="257" type="line"/>
			<point x="201" y="257" type="line"/>
			<point x="193" y="50" type="line"/>
			<point x="170" y="50" type="line"/>
		</contour>
		<contour>
			<point x="201" y="257" type="line"/>
			<point x="259" y="730" type="line"/>
			<point x="285" y="730" type="line"/>
			<point x="193" y="50" type="line"/>
			<point x="170" y="50" type="line"/>
		</contour>
		<contour>
			<point x="242" y="522" type="line"/>
			<point x="261" y="730" type="line"/>
			<point x="322" y="730" type="line"/>
			<point x="332" y="0" type="line"/>
			<point x="255" y="0" type="line"/>
			<point x="268" y="522" type="line"/>
		</contour>
	</outline>
</glyph>
<glyph name="T" format="2">
	<advance width="251"/>
	<unicode hex="0054"/>
	<outline>
		<contour>
			<point x="88" y="730" type="line"/>
			<point x="163" y="730" type="line"/>
			<point x="163" y="0" type="line"/>
			<point x="88" y="0" type="line"/>
		</contour>
		<contour>
			<point x="5" y="665" type="line"/>
			<point x="5" y="730" type="line"/>
			<point x="246" y="730" type="line"/>
			<point x="246" y="665" type="line"/>
		</contour>
	</outline>
</glyph>
<glyph name="U" format="2">
	<advance width="286"/>
	<unicode hex="0055"/>
	<anchor x="144" y="760" name="top"/>
	<anchor x="125" y="0" name="bottom"/>
	<outline>
		<contour>
			<point x="181" y="115" type="curve"/>
			<point x="181" y="730" type="line"/>
			<point x="256" y="730" type="line"/>
			<point x="256" y="125" type="line" smooth="yes"/>
			<point x="256" y="27"/>
			<point x="202" y="-10"/>
			<point x="137" y="-10" type="curve"/>
			<point x="68" y="-10"/>
			<point x="30" y="21"/>
			<point x="30" y="107" type="curve"/>
			<point x="30" y="730" type="line"/>
			<point x="105" y="730" type="line"/>
			<point x="105" y="141" type="line" smooth="yes"/>
			<point x="105" y="69"/>
			<point x="125" y="58"/>
			<point x="149" y="58" type="curve"/>
			<point x="175" y="58"/>
			<point x="181" y="80"/>
		</contour>
	</outline>
</glyph>
<glyph name="V" format="2">
	<advance width="278"/>
	<unicode hex="0056"/>
	<outline>
		<contour>
			<point x="0" y="730" type="line"/>
			<point x="84" y="730" type="line"/>
			<point x="124" y="419" type="line"/>
			<point x="143" y="219" type="line"/>
			<point x="154" y="219" type="line"/>
			<point x="150" y="0" type="line"/>
			<point x="122" y="0" type="line"/>
		</contour>
		<contour>
			<point x="154" y="219" type="line"/>
			<point x="188" y="730" type="line"/>
			<point x="278" y="730" type="line"/>
			<point x="150" y="0" type="line"/>
			<point x="122" y="0" type="line"/>
		</contour>
	</outline>
</glyph>
<glyph name="W" format="2">
	<advance width="418"/>
	<unicode hex="0057"/>
	<outline>
		<contour>
			<point x="0" y="730" type="line"/>
			<point x="84" y="730" type="line"/>
			<point x="124" y="419" type="line"/>
			<point x="134" y="219" type="line"/>
			<point x="145" y="219" type="line"/>
			<point x="150" y="0" type="line"/>
			<point x="122" y="0" type="line"/>
		</contour>
		<contour>
			<point x="145" y="219" type="line"/>
			<point x="185" y="730" type="line"/>
			<point x="214" y="730" type="line"/>
			<point x="150" y="0" type="line"/>
			<point x="122" y="0" type="line"/>
		</contour>
		<contour>
			<point x="197" y="730" type="line"/>
			<point x="234" y="730" type="line"/>
			<point x="264" y="419" type="line"/>
			<point x="283" y="219" type="line"/>
			<point x="294" y="219" type="line"/>
			<point x="290" y="0" type="line"/>
			<point x="262" y="0" type="line"/>
			<point x="200" y="489" type="line"/>
			<point x="181" y="489" type="line"/>
		</contour>
		<contour>
			<point x="294" y="219" type="line"/>
			<point x="328" y="730" type="line"/>
			<point x="418" y="730" type="line"/>
			<point x="290" y="0" type="line"/>
			<point x="262" y="0" type="line"/>
		</contour>
	</outline>
</glyph>
<glyph name="X" format="2">
	<advance width="265"/>
	<unicode hex="0058"/>
	<outline>
		<contour>
			<point x="115" y="328" type="line"/>
			<point x="84" y="0" type="line"/>
			<point x="0" y="0" type="line"/>
			<point x="116" y="441" type="line"/>
		</contour>
		<contour>
			<point x="148" y="169" type="line"/>
			<point x="124" y="328" type="line"/>
			<point x="115" y="328" type="line"/>
			<point x="4" y="730" type="line"/>
			<point x="88" y="730" type="line"/>
			<point x="121" y="580" type="line"/>
			<point x="145" y="451" type="line"/>
			<point x="156" y="451" type="line"/>
			<point x="265" y="0" type="line"/>
			<point x="181" y="0" type="line"/>
		</contour>
		<contour>
			<point x="156" y="451" type="line"/>
			<point x="179" y="730" type="line"/>
			<point x="263" y="730" type="line"/>
			<point x="152" y="336" type="line"/>
		</contour>
	</outline>
</glyph>
<glyph name="Y" format="2">
	<advance width="278"/>
	<unicode hex="0059"/>
	<anchor x="137" y="760" name="top"/>
	<outline>
		<contour>
			<point x="0" y="730" type="line"/>
			<point x="84" y="730" type="line"/>
			<point x="124" y="453" type="line"/>
			<point x="143" y="276" type="line"/>
			<point x="154" y="276" type="line"/>
			<point x="150" y="80" type="line"/>
			<point x="122" y="80" type="line"/>
		</contour>
		<contour>
			<point x="154" y="276" type="line"/>
			<point x="188" y="730" type="line"/>
			<point x="278" y="730" type="line"/>
			<point x="150" y="80" type="line"/>
			<point x="122" y="80" type="line"/>
		</contour>
		<contour>
			<point x="99" y="234" type="line"/>
			<point x="174" y="234" type="line"/>
			<point x="174" y="0" type="line"/>
			<point x="99" y="0" type="line"/>
		</contour>
	</outline>
</glyph>
<glyph name="bracketleft" format="2">
	<advance width="149"/>
	<unicode hex="005B"/>
	<outline>
		<contour>
			<point x="144" y="730" type="line"/>
			<point x="30" y="730" type="line"/>
			<point x="30" y="-130" type="line"/>
			<point x="144" y="-130" type="line"/>
			<point x="144" y="-62" type="line"/>
			<point x="100" y="-62" type="line"/>
			<point x="100" y="662" type="line"/>
			<point x="144" y="662" type="line"/>
		</contour>
	</outline>
</glyph>
<glyph name="asciicircum" format="2">
	<advance width="250"/>
	<unicode hex="005E"/>
	<outline>
		<contour>
			<point x="119" y="335" type="line"/>
			<point x="129" y="335" type="line"/>
			<point x="129" y="247"/>
			<point x="153" y="186"/>
			<point x="215" y="186" type="curve"/>
			<point x="215" y="192" type="line"/>
			<point x="175" y="196"/>
			<point x="158" y="256"/>
			<point x="158" y="360" type="curve"/>
			<point x="158" y="480" type="line"/>
			<point x="117" y="480" type="line"/>
		</contour>
		<contour>
			<point x="122" y="335" type="curve"/>
			<point x="132" y="335" type="line"/>
			<point x="134" y="480" type="line"/>
			<point x="93" y="480" type="line"/>
			<point x="93" y="360" type="line" smooth="yes"/>
			<point x="93" y="264"/>
			<point x="76" y="196"/>
			<point x="36" y="192" type="curve"/>
			<point x="36" y="186" type="line"/>
			<point x="98" y="186"/>
			<point x="122" y="247"/>
		</contour>
	</outline>
</glyph>
<glyph name="d" format="2">
	<advance width="283"/>
	<unicode hex="0064"/>
	<outline>
		<contour>
			<point x="107" y="446" type="curve"/>
			<point x="107" y="110" type="line" smooth="yes"/>
			<point x="107" y="74"/>
			<point x="116" y="58"/>
			<point x="133" y="58" type="curve"/>
			<point x="155" y="58"/>
			<point x="178" y="126"/>
			<point x="178" y="218" type="curve"/>
			<point x="178" y="526" type="line"/>
			<point x="165" y="539"/>
			<point x="151" y="546"/>
			<point x="135" y="546" type="curve"/>
			<point x="116" y="546"/>
			<point x="107" y="532"/>
		</contour>
		<contour>
			<point x="35" y="71" type="curve"/>
			<point x="35" y="440" type="line"/>
			<point x="35" y="560"/>
			<point x="64" y="610"/>
			<point x="128" y="610" type="curve"/>
			<point x="153" y="610"/>
			<point x="175" y="597"/>
			<point x="197" y="577" type="curve"/>
			<point x="203" y="583" type="line"/>
			<point x="178" y="609" type="line"/>
			<point x="178" y="730" type="line"/>
			<point x="248" y="730" type="line"/>
			<point x="248" y="0" type="line"/>
			<point x="179" y="0" type="line"/>
			<point x="179" y="11" type="line"/>
			<point x="202" y="163" type="line"/>
			<point x="192" y="165" type="line"/>
			<point x="171" y="15"/>
			<point x="137" y="-10"/>
			<point x="99" y="-10" type="curve"/>
			<point x="62" y="-10"/>
			<point x="35" y="21"/>
		</contour>
	</outline>
</glyph>
<glyph name="f" format="2">
	<advance width="199"/>
	<unicode hex="0066"/>
	<outline>
		<contour>
			<point x="121" y="629" type="curve"/>
			<point x="121" y="0" type="line"/>
			<point x="51" y="0" type="line"/>
			<point x="51" y="509" type="line" smooth="yes"/>
			<point x="51" y="622"/>
			<point x="143" y="730"/>
			<point x="232" y="730" type="curve"/>
			<point x="245" y="730" type="line"/>
			<point x="245" y="643" type="line"/>
			<point x="227" y="651"/>
			<point x="201" y="657"/>
			<point x="169" y="657" type="curve"/>
			<point x="140" y="657"/>
			<point x="121" y="651"/>
		</contour>
		<contour>
			<point x="209" y="600" type="line"/>
			<point x="209" y="549" type="line"/>
			<point x="8" y="549" type="line"/>
			<point x="8" y="600" type="line"/>
		</contour>
	</outline>
</glyph>
<glyph name="i" format="2">
	<advance width="140"/>
	<unicode hex="0069"/>
	<anchor x="75" y="637" name="top"/>
	<anchor x="70" y="0" name="bottom"/>
	<outline>
		<contour>
			<point x="17" y="730" type="line"/>
			<point x="17" y="679" type="line"/>
			<point x="123" y="679" type="line"/>
			<point x="123" y="730" type="line"/>
		</contour>
		<component base="dotlessi"/>
	</outline>
</glyph>
<glyph name="j" format="2">
	<advance width="140"/>
	<unicode hex="006A"/>
	<outline>
		<contour>
			<point x="17" y="730" type="line"/>
			<point x="17" y="679" type="line"/>
			<point x="123" y="679" type="line"/>
			<point x="123" y="730" type="line"/>
		</contour>
		<component base="uni0237"/>
	</outline>
</glyph>
<glyph name="k" format="2">
	<advance width="274"/>
	<unicode hex="006B"/>
	<anchor x="150" y="0" name="bottom"/>
	<outline>
		<contour>
			<point x="104" y="315" type="curve"/>
			<point x="107" y="349" type="line"/>
			<point x="119" y="338" type="line"/>
			<point x="218" y="351" type="line"/>
			<point x="264" y="0" type="line"/>
			<point x="188" y="0" type="line"/>
			<point x="168" y="231" type="line" smooth="yes"/>
			<point x="162" y="305"/>
			<point x="143" y="322"/>
		</contour>
		<contour>
			<point x="36" y="730" type="line"/>
			<point x="106" y="730" type="line"/>
			<point x="106" y="649" type="line"/>
			<point x="82" y="354" type="line"/>
			<point x="92" y="352" type="line"/>
			<point x="165" y="600" type="line"/>
			<point x="255" y="600" type="line"/>
			<point x="255" y="538" type="line"/>
			<point x="233" y="532" type="line" smooth="yes"/>
			<point x="190" y="520"/>
			<point x="168" y="491"/>
			<point x="136" y="412" type="curve"/>
			<point x="112" y="352"/>
			<point x="106" y="317"/>
			<point x="106" y="264" type="curve"/>
			<point x="106" y="0" type="line"/>
			<point x="36" y="0" type="line"/>
		</contour>
	</outline>
</glyph>
<glyph name="l" format="2">
	<advance width="140"/>
	<unicode hex="006C"/>
	<anchor x="70" y="0" name="bottom"/>
	<outline>
		<contour>
			<point x="35" y="730" type="line"/>
			<point x="105" y="730" type="line"/>
			<point x="105" y="0" type="line"/>
			<point x="35" y="0" type="line"/>
		</contour>
	</outline>
</glyph>
<glyph name="n" format="2">
	<advance width="283"/>
	<unicode hex="006E"/>
	<anchor x="146" y="640" name="top"/>
	<anchor x="142" y="0" name="bottom"/>
	<outline>
		<contour>
			<point x="35" y="600" type="line"/>
			<point x="105" y="600" type="line"/>
			<point x="105" y="589" type="line"/>
			<point x="81" y="437" type="line"/>
			<point x="91" y="435" type="line"/>
			<point x="112" y="585"/>
			<point x="146" y="610"/>
			<point x="184" y="610" type="curve"/>
			<point x="221" y="610"/>
			<point x="248" y="579"/>
			<point x="248" y="529" type="curve"/>
			<point x="248" y="0" type="line"/>
			<point x="178" y="0" type="line"/>
			<point x="178" y="490" type="line" smooth="yes"/>
			<point x="178" y="526"/>
			<point x="173" y="542"/>
			<point x="154" y="542" type="curve"/>
			<point x="126" y="542"/>
			<point x="105" y="473"/>
			<point x="105" y="380" type="curve"/>
			<point x="105" y="0" type="line"/>
			<point x="35" y="0" type="line"/>
		</contour>
	</outline>
</glyph>
<glyph name="s" format="2">
	<advance width="238"/>
	<unicode hex="0073"/>
	<anchor x="126" y="640" name="top"/>
	<anchor x="112" y="0" name="bottom"/>
	<outline>
		<contour>
			<point x="221" y="113" type="curve" smooth="yes"/>
			<point x="221" y="27"/>
			<point x="170" y="-10"/>
			<point x="110" y="-10" type="curve"/>
			<point x="51" y="-10"/>
			<point x="23" y="21"/>
			<point x="23" y="83" type="curve"/>
			<point x="23" y="134"/>
			<point x="27" y="191"/>
			<point x="34" y="235" type="curve"/>
			<point x="106" y="235" type="line"/>
			<point x="55" y="137"/>
			<point x="42" y="105"/>
			<point x="42" y="84" type="curve"/>
			<point x="42" y="66"/>
			<point x="61" y="58"/>
			<point x="110" y="58" type="curve"/>
			<point x="143" y="58"/>
			<point x="151" y="78"/>
			<point x="151" y="104" type="curve"/>
			<point x="151" y="203"/>
			<point x="18" y="378"/>
			<point x="18" y="486" type="curve"/>
			<point x="18" y="575"/>
			<point x="69" y="610"/>
			<point x="129" y="610" type="curve"/>
			<point x="181" y="610"/>
			<point x="206" y="580"/>
			<point x="206" y="518" type="curve"/>
			<point x="206" y="478"/>
			<point x="204" y="432"/>
			<point x="195" y="379" type="curve"/>
			<point x="129" y="379" type="line"/>
			<point x="174" y="468"/>
			<point x="187" y="497"/>
			<point x="187" y="517" type="curve"/>
			<point x="187" y="535"/>
			<point x="171" y="542"/>
			<point x="129" y="542" type="curve"/>
			<point x="96" y="542"/>
			<point x="88" y="524"/>
			<point x="88" y="498" type="curve"/>
			<point x="88" y="413"/>
			<point x="221" y="200"/>
		</contour>
	</outline>
</glyph>
<glyph name="y" format="2">
	<advance width="242"/>
	<unicode hex="0079"/>
	<anchor x="118" y="640" name="top"/>
	<outline>
		<contour>
			<point x="-5" y="600" type="line"/>
			<point x="71" y="600" type="line"/>
			<point x="104" y="379" type="line"/>
			<point x="126" y="179" type="line"/>
			<point x="137" y="179" type="line"/>
			<point x="123" y="82" type="line"/>
			<point x="94" y="82" type="line"/>
		</contour>
		<contour>
			<point x="137" y="179" type="line"/>
			<point x="164" y="600" type="line"/>
			<point x="246" y="600" type="line"/>
			<point x="106" y="-130" type="line"/>
			<point x="20" y="-130" type="line"/>
			<point x="123" y="82" type="line"/>
		</contour>
	</outline>
</glyph>
<glyph name="z" format="2">
	<advance width="232"/>
	<unicode hex="007A"/>
	<anchor x="110" y="640" name="top"/>
	<outline>
		<contour>
			<point x="134" y="557" type="line"/>
			<point x="5" y="0" type="line"/>
			<point x="89" y="34" type="line"/>
			<point x="84" y="41" type="line"/>
			<point x="211" y="600" type="line"/>
			<point x="127" y="565" type="line"/>
		</contour>
		<contour>
			<point x="89" y="34" type="line"/>
			<point x="5" y="0" type="line"/>
			<point x="217" y="0" type="line"/>
			<point x="217" y="80" type="line"/>
		</contour>
		<contour>
			<point x="28" y="600" type="line"/>
			<point x="28" y="520" type="line"/>
			<point x="127" y="565" type="line"/>
			<point x="211" y="600" type="line"/>
		</contour>
	</outline>
</glyph>
<glyph name="braceleft" format="2">
	<advance width="184"/>
	<unicode hex="007B"/>
	<outline>
		<contour>
			<point x="135" y="155" type="curve"/>
			<point x="135" y="21" type="line"/>
			<point x="135" y="-51"/>
			<point x="147" y="-62"/>
			<point x="179" y="-62" type="curve"/>
			<point x="179" y="-130" type="line"/>
			<point x="105" y="-130"/>
			<point x="65" y="-99"/>
			<point x="65" y="-13" type="curve"/>
			<point x="65" y="215" type="line"/>
			<point x="65" y="264"/>
			<point x="51" y="290"/>
			<point x="18" y="290" type="curve"/>
			<point x="0" y="290" type="line"/>
			<point x="0" y="310" type="line"/>
			<point x="18" y="310" type="line" smooth="yes"/>
			<point x="51" y="310"/>
			<point x="65" y="336"/>
			<point x="65" y="385" type="curve"/>
			<point x="65" y="613" type="line"/>
			<point x="65" y="699"/>
			<point x="105" y="730"/>
			<point x="179" y="730" type="curve"/>
			<point x="179" y="662" type="line"/>
			<point x="147" y="662"/>
			<point x="135" y="651"/>
			<point x="135" y="579" type="curve"/>
			<point x="135" y="445" type="line" smooth="yes"/>
			<point x="135" y="352"/>
			<point x="110" y="315"/>
			<point x="60" y="306" type="curve"/>
			<point x="60" y="294" type="line"/>
			<point x="110" y="285"/>
			<point x="135" y="248"/>
		</contour>
	</outline>
</glyph>
<glyph name="asciitilde" format="2">
	<advance width="250"/>
	<unicode hex="007E"/>
	<outline>
		<contour>
			<point x="237" y="392" type="curve"/>
			<point x="231" y="392" type="line"/>
			<point x="228" y="372"/>
			<point x="207" y="357"/>
			<point x="187" y="357" type="curve"/>
			<point x="154" y="357"/>
			<point x="99" y="391"/>
			<point x="67" y="391" type="curve"/>
			<point x="31" y="391"/>
			<point x="14" y="365"/>
			<point x="13" y="296" type="curve"/>
			<point x="20" y="296" type="line"/>
			<point x="23" y="315"/>
			<point x="44" y="330"/>
			<point x="64" y="330" type="curve"/>
			<point x="97" y="330"/>
			<point x="151" y="296"/>
			<point x="184" y="296" type="curve"/>
			<point x="220" y="296"/>
			<point x="237" y="322"/>
		</contour>
	</outline>
</glyph>
<glyph name="ordfeminine" format="2">
	<advance width="248"/>
	<unicode hex="00AA"/>
	<anchor x="136" y="640" name="top"/>
	<anchor x="238" y="0" name="bottom_right"/>
	<outline>
		<contour>
			<point x="225" y="294" type="line"/>
			<point x="20" y="294" type="line"/>
			<point x="20" y="314" type="line"/>
			<point x="225" y="314" type="line"/>
		</contour>
		<contour>
			<point x="109" y="741" type="curve" smooth="yes"/>
			<point x="156" y="741"/>
			<point x="179" y="716"/>
			<point x="179" y="675" type="curve"/>
			<point x="179" y="456" type="line" smooth="yes"/>
			<point x="179" y="414"/>
			<point x="187" y="409"/>
			<point x="196" y="409" type="curve"/>
			<point x="203" y="409"/>
			<point x="208" y="414"/>
			<point x="209" y="440" type="curve"/>
			<point x="212" y="541" type="line"/>
			<point x="223" y="541" type="line"/>
			<point x="225" y="443" type="line" smooth="yes"/>
			<point x="226" y="392"/>
			<point x="218" y="354"/>
			<point x="181" y="354" type="curve"/>
			<point x="148" y="354"/>
			<point x="133" y="377"/>
			<point x="143" y="491" type="curve"/>
			<point x="135" y="492" type="line"/>
			<point x="123" y="373"/>
			<point x="103" y="354"/>
			<point x="73" y="354" type="curve"/>
			<point x="42" y="354"/>
			<point x="26" y="372"/>
			<point x="26" y="411" type="curve"/>
			<point x="26" y="417" type="line" smooth="yes"/>
			<point x="26" y="482"/>
			<point x="60" y="507"/>
			<point x="123" y="567" type="curve"/>
			<point x="123" y="655" type="line" smooth="yes"/>
			<point x="123" y="680"/>
			<point x="117" y="687"/>
			<point x="90" y="687" type="curve"/>
			<point x="60" y="687"/>
			<point x="52" y="673"/>
			<point x="52" y="651" type="curve"/>
			<point x="52" y="555" type="line"/>
			<point x="42" y="555" type="line"/>
			<point x="34" y="642" type="line" smooth="yes"/>
			<point x="30" y="688"/>
			<point x="67" y="741"/>
		</contour>
		<contour>
			<point x="97" y="412" type="curve" smooth="yes"/>
			<point x="114" y="412"/>
			<point x="124" y="461"/>
			<point x="124" y="535" type="curve"/>
			<point x="124" y="549" type="line"/>
			<point x="89" y="516"/>
			<point x="83" y="496"/>
			<point x="83" y="463" type="curve"/>
			<point x="83" y="432" type="line" smooth="yes"/>
			<point x="83" y="417"/>
			<point x="89" y="412"/>
		</contour>
	</outline>
</glyph>
<glyph name="uni00B5" format="2">
	<advance width="283"/>
	<unicode hex="00B5"/>
	<anchor x="136" y="640" name="top"/>
	<anchor x="238" y="0" name="bottom_right"/>
	<outline>
		<contour>
			<point x="35" y="-130" type="line"/>
			<point x="35" y="600" type="line"/>
			<point x="105" y="600" type="line"/>
			<point x="105" y="110" type="line" smooth="yes"/>
			<point x="105" y="74"/>
			<point x="110" y="58"/>
			<point x="129" y="58" type="curve" smooth="yes"/>
			<point x="157" y="58"/>
			<point x="178" y="127"/>
			<point x="178" y="220" type="curve" smooth="yes"/>
			<point x="178" y="600" type="line"/>
			<point x="248" y="600" type="line"/>
			<point x="248" y="0" type="line"/>
			<point x="178" y="0" type="line"/>
			<point x="178" y="11" type="line"/>
			<point x="202" y="163" type="line"/>
			<point x="192" y="165" type="line"/>
			<point x="185" y="112"/>
			<point x="168" y="-5"/>
			<point x="105" y="-10" type="curve"/>
			<point x="105" y="-130" type="line"/>
		</contour>
	</outline>
</glyph>
<glyph name="paragraph" format="2">
	<advance width="290"/>
	<unicode hex="00B6"/>
	<outline>
		<contour>
			<point x="181" y="0" type="line"/>
			<point x="181" y="730" type="line"/>
			<point x="208" y="730" type="line"/>
			<point x="208" y="0" type="line"/>
		</contour>
		<contour>
			<point x="199" y="662" type="line"/>
			<point x="187" y="662" type="line"/>
			<point x="194" y="337" type="line"/>
			<point x="194" y="337"/>
			<point x="208" y="337"/>
			<point x="208" y="337" type="curve"/>
			<point x="208" y="293" type="line"/>
			<point x="166" y="293" type="line" smooth="yes"/>
			<point x="80" y="293"/>
			<point x="30" y="328"/>
			<point x="30" y="419" type="curve"/>
			<point x="30" y="595" type="line" smooth="yes"/>
			<point x="30" y="693"/>
			<point x="98" y="730"/>
			<point x="179" y="730" type="curve"/>
			<point x="179" y="730"/>
			<point x="199" y="730"/>
			<point x="199" y="730" type="curve"/>
		</contour>
		<contour>
			<point x="233" y="0" type="line"/>
			<point x="233" y="730" type="line"/>
			<point x="260" y="730" type="line"/>
			<point x="260" y="0" type="line"/>
		</contour>
	</outline>
</glyph>
<glyph name="Eth" format="2">
	<advance width="286"/>
	<unicode hex="00D0"/>
	<anchor x="127" y="760" name="top"/>
	<outline>
		<contour>
			<point x="144" y="371" type="line"/>
			<point x="0" y="371" type="line"/>
			<point x="0" y="391" type="line"/>
			<point x="144" y="391" type="line"/>
		</contour>
		<component base="D"/>
	</outline>
</glyph>
<glyph name="germandbls" format="2">
	<advance width="354"/>
	<unicode hex="00DF"/>
	<outline>
		<contour>
			<point x="345" y="668" type="curve" smooth="yes"/>
			<point x="345" y="559"/>
			<point x="216" y="552"/>
			<point x="216" y="478" type="curve"/>
			<point x="216" y="397"/>
			<point x="349" y="195"/>
			<point x="349" y="113" type="curve"/>
			<point x="349" y="27"/>
			<point x="298" y="-10"/>
			<point x="238" y="-10" type="curve"/>
			<point x="179" y="-10"/>
			<point x="151" y="21"/>
			<point x="151" y="83" type="curve"/>
			<point x="151" y="134"/>
			<point x="155" y="191"/>
			<point x="162" y="235" type="curve"/>
			<point x="234" y="235" type="line"/>
			<point x="183" y="137"/>
			<point x="170" y="105"/>
			<point x="170" y="84" type="curve"/>
			<point x="170" y="66"/>
			<point x="189" y="58"/>
			<point x="238" y="58" type="curve"/>
			<point x="271" y="58"/>
			<point x="279" y="78"/>
			<point x="279" y="104" type="curve"/>
			<point x="279" y="198"/>
			<point x="146" y="364"/>
			<point x="146" y="466" type="curve"/>
			<point x="146" y="594"/>
			<point x="305" y="572"/>
			<point x="305" y="624" type="curve"/>
			<point x="305" y="659"/>
			<point x="261" y="677"/>
			<point x="182" y="677" type="curve"/>
			<point x="119" y="677"/>
			<point x="100" y="667"/>
			<point x="100" y="629" type="curve"/>
			<point x="100" y="0" type="line"/>
			<point x="30" y="0" type="line"/>
			<point x="30" y="509" type="line" smooth="yes"/>
			<point x="30" y="627"/>
			<point x="122" y="740"/>
			<point x="236" y="740" type="curve"/>
			<point x="308" y="740"/>
			<point x="345" y="716"/>
		</contour>
	</outline>
</glyph>
<glyph name="ae" format="2">
	<advance width="379"/>
	<unicode hex="00E6"/>
	<anchor x="136" y="640" name="top"/>
	<anchor x="238" y="0" name="bottom_right"/>
	<outline>
		<contour>
			<point x="326" y="332" type="line"/>
			<point x="202" y="332" type="line"/>
			<point x="202" y="346" type="line"/>
			<point x="326" y="346" type="line"/>
		</contour>
		<contour>
			<point x="120" y="63" type="curve" smooth="yes"/>
			<point x="142" y="63"/>
			<point x="154" y="124"/>
			<point x="154" y="216" type="curve"/>
			<point x="154" y="296" type="line"/>
			<point x="110" y="254"/>
			<point x="103" y="229"/>
			<point x="103" y="187" type="curve"/>
			<point x="103" y="87" type="line" smooth="yes"/>
			<point x="103" y="69"/>
			<point x="110" y="63"/>
		</contour>
		<contour>
			<point x="200" y="475" type="line"/>
			<point x="209" y="475" type="line"/>
			<point x="209" y="573"/>
			<point x="231" y="610"/>
			<point x="273" y="610" type="curve"/>
			<point x="315" y="610"/>
			<point x="344" y="579"/>
			<point x="344" y="493" type="curve"/>
			<point x="344" y="332" type="line"/>
			<point x="284" y="332" type="line"/>
			<point x="284" y="460" type="line" smooth="yes"/>
			<point x="284" y="532"/>
			<point x="273" y="542"/>
			<point x="253" y="542" type="curve"/>
			<point x="229" y="542"/>
			<point x="224" y="520"/>
			<point x="224" y="485" type="curve"/>
			<point x="224" y="141" type="line" smooth="yes"/>
			<point x="224" y="69"/>
			<point x="250" y="58"/>
			<point x="278" y="58" type="curve"/>
			<point x="308" y="58"/>
			<point x="321" y="96"/>
			<point x="323" y="160" type="curve"/>
			<point x="326" y="277" type="line"/>
			<point x="340" y="277" type="line"/>
			<point x="343" y="157" type="line" smooth="yes"/>
			<point x="345" y="62"/>
			<point x="313" y="-10"/>
			<point x="246" y="-10" type="curve"/>
			<point x="192" y="-10"/>
			<point x="170" y="19"/>
			<point x="179" y="161" type="curve"/>
			<point x="169" y="161" type="line"/>
			<point x="154" y="14"/>
			<point x="129" y="-10"/>
			<point x="91" y="-10" type="curve"/>
			<point x="53" y="-10"/>
			<point x="33" y="13"/>
			<point x="33" y="61" type="curve"/>
			<point x="33" y="130" type="line" smooth="yes"/>
			<point x="33" y="211"/>
			<point x="75" y="243"/>
			<point x="154" y="317" type="curve"/>
			<point x="154" y="502" type="line" smooth="yes"/>
			<point x="154" y="534"/>
			<point x="146" y="542"/>
			<point x="113" y="542" type="curve"/>
			<point x="67" y="542"/>
			<point x="55" y="520"/>
			<point x="55" y="485" type="curve"/>
			<point x="55" y="443"/>
			<point x="68" y="404"/>
			<point x="147" y="324" type="curve"/>
			<point x="51" y="324" type="line"/>
			<point x="31" y="372"/>
			<point x="25" y="428"/>
			<point x="25" y="474" type="curve"/>
			<point x="25" y="537"/>
			<point x="74" y="610"/>
			<point x="137" y="610" type="curve"/>
			<point x="179" y="610"/>
			<point x="200" y="579"/>
			<point x="200" y="528" type="curve"/>
		</contour>
	</outline>
</glyph>
<glyph name="dcroat" format="2">
	<advance width="283"/>
	<unicode hex="0111"/>
	<outline>
		<contour>
			<point x="283" y="670" type="line"/>
			<point x="129" y="670" type="line"/>
			<point x="129" y="690" type="line"/>
			<point x="283" y="690" type="line"/>
		</contour>
		<component base="d"/>
	</outline>
</glyph>
<glyph name="eogonek" format="2">
	<advance width="260"/>
	<unicode hex="0119"/>
	<anchor x="166" y="0" name="_bottom_right"/>
	<anchor x="165" y="0" name="bottom_right"/>
	<anchor x="143" y="640" name="top"/>
	<anchor x="159" y="0" name="_bottom"/>
	<outline>
		<contour>
			<point x="150" y="-2" type="line"/>
			<point x="134" y="-21" type="line"/>
			<point x="128" y="-7" type="line"/>
		</contour>
		<component base="ogonek" xOffset="41"/>
		<component base="e"/>
	</outline>
</glyph>
<glyph name="Hbar" format="2">
	<advance width="295"/>
	<unicode hex="0126"/>
	<outline>
		<contour>
			<point x="295" y="520" type="line"/>
			<point x="0" y="520" type="line"/>
			<point x="0" y="540" type="line"/>
			<point x="295" y="540" type="line"/>
		</contour>
		<component base="H"/>
	</outline>
</glyph>
<glyph name="hbar" format="2">
	<advance width="283"/>
	<unicode hex="0127"/>
	<outline>
		<contour>
			<point x="154" y="670" type="line"/>
			<point x="0" y="670" type="line"/>
			<point x="0" y="690" type="line"/>
			<point x="154" y="690" type="line"/>
		</contour>
		<component base="h"/>
	</outline>
</glyph>
<glyph name="Lslash" format="2">
	<advance width="223"/>
	<unicode hex="0141"/>
	<outline>
		<contour>
			<point x="0" y="322" type="line"/>
			<point x="0" y="296" type="line"/>
			<point x="184" y="410" type="line"/>
			<point x="184" y="436" type="line"/>
		</contour>
		<component base="L"/>
	</outline>
</glyph>
<glyph name="lslash" format="2">
	<advance width="140"/>
	<unicode hex="0142"/>
	<outline>
		<contour>
			<point x="140" y="393" type="line"/>
			<point x="0" y="306" type="line"/>
			<point x="0" y="332" type="line"/>
			<point x="140" y="419" type="line"/>
		</contour>
		<component base="l"/>
	</outline>
</glyph>
<glyph name="Eng" format="2">
	<advance width="280"/>
	<unicode hex="014A"/>
	<anchor x="141" y="760" name="top"/>
	<outline>
		<contour>
			<point x="25" y="730" type="line"/>
			<point x="85" y="730" type="line"/>
			<point x="93" y="607" type="line"/>
			<point x="76" y="607" type="line"/>
			<point x="90" y="376" type="line"/>
			<point x="96" y="0" type="line"/>
			<point x="25" y="0" type="line"/>
		</contour>
		<contour>
			<point x="192" y="42" type="line"/>
			<point x="187" y="123" type="line"/>
			<point x="204" y="123" type="line"/>
			<point x="190" y="354" type="line"/>
			<point x="183" y="730" type="line"/>
			<point x="255" y="730" type="line"/>
			<point x="255" y="139" type="line" smooth="yes"/>
			<point x="255" y="-8"/>
			<point x="169" y="-130"/>
			<point x="106" y="-130" type="curve"/>
			<point x="86" y="-130" type="line"/>
			<point x="86" y="-53" type="line"/>
			<point x="105" y="-55"/>
			<point x="119" y="-57"/>
			<point x="142" y="-57" type="curve"/>
			<point x="165" y="-57"/>
			<point x="180" y="-49"/>
			<point x="180" y="-19" type="curve" smooth="yes"/>
			<point x="180" y="6" type="line" smooth="yes"/>
			<point x="180" y="21"/>
			<point x="179" y="36"/>
			<point x="176" y="52" type="curve" smooth="yes"/>
			<point x="69" y="730" type="line"/>
			<point x="96" y="730" type="line"/>
			<point x="212" y="0" type="line"/>
		</contour>
	</outline>
</glyph>
<glyph name="OE" format="2">
	<advance width="379"/>
	<unicode hex="0152"/>
	<anchor x="159" y="-30" name="top"/>
	<outline>
		<contour>
			<point x="192" y="665" type="line"/>
			<point x="192" y="730" type="line"/>
			<point x="354" y="730" type="line"/>
			<point x="354" y="665" type="line"/>
		</contour>
		<contour>
			<point x="327" y="374" type="line"/>
			<point x="233" y="374" type="line"/>
			<point x="233" y="394" type="line"/>
			<point x="327" y="394" type="line"/>
		</contour>
		<contour>
			<point x="192" y="0" type="line"/>
			<point x="192" y="65" type="line"/>
			<point x="364" y="65" type="line"/>
			<point x="364" y="0" type="line"/>
		</contour>
		<component base="D" xScale="-1" yScale="-1" xOffset="286" yOffset="730"/>
	</outline>
</glyph>
<glyph name="tbar" format="2">
	<advance width="230"/>
	<unicode hex="0167"/>
	<outline>
		<contour>
			<point x="204" y="391" type="line"/>
			<point x="5" y="391" type="line"/>
			<point x="5" y="411" type="line"/>
			<point x="204" y="411" type="line"/>
		</contour>
		<component base="t"/>
	</outline>
</glyph>
<glyph name="hungarumlaut" format="2">
	<advance width="250"/>
	<unicode hex="02DD"/>
	<anchor x="126" y="640" name="_top"/>
	<outline>
		<contour>
			<point x="129" y="720" type="curve"/>
			<point x="129" y="730" type="line"/>
			<point x="69" y="730" type="line"/>
			<point x="71" y="720" type="line" smooth="yes"/>
			<point x="78" y="686"/>
			<point x="63" y="646"/>
			<point x="34" y="642" type="curve"/>
			<point x="34" y="636" type="line"/>
			<point x="103" y="637"/>
			<point x="129" y="664"/>
		</contour>
		<contour>
			<point x="229" y="720" type="curve"/>
			<point x="229" y="730" type="line"/>
			<point x="169" y="730" type="line"/>
			<point x="171" y="720" type="line" smooth="yes"/>
			<point x="178" y="686"/>
			<point x="163" y="646"/>
			<point x="134" y="642" type="curve"/>
			<point x="134" y="636" type="line"/>
			<point x="203" y="637"/>
			<point x="229" y="664"/>
		</contour>
	</outline>
</glyph>
<glyph name="gravecomb" format="2">
	<advance width="250"/>
	<unicode hex="0300"/>
	<anchor x="136" y="640" name="_top"/>
	<outline>
		<contour>
			<point x="56" y="730" type="line"/>
			<point x="56" y="720" type="line"/>
			<point x="56" y="664"/>
			<point x="97" y="637"/>
			<point x="206" y="636" type="curve"/>
			<point x="206" y="642" type="line"/>
			<point x="142" y="652"/>
			<point x="112" y="685"/>
			<point x="119" y="720" type="curve"/>
			<point x="121" y="730" type="line"/>
		</contour>
	</outline>
</glyph>
<glyph name="uni0302" format="2">
	<advance width="250"/>
	<unicode hex="0302"/>
	<anchor x="125" y="640" name="_top"/>
	<outline>
		<contour>
			<point x="119" y="675" type="line"/>
			<point x="129" y="675" type="line"/>
			<point x="129" y="652"/>
			<point x="156" y="636"/>
			<point x="225" y="636" type="curve"/>
			<point x="225" y="642" type="line"/>
			<point x="182" y="647"/>
			<point x="161" y="669"/>
			<point x="161" y="710" type="curve"/>
			<point x="161" y="730" type="line"/>
			<point x="117" y="730" type="line"/>
		</contour>
		<contour>
			<point x="122" y="675" type="curve"/>
			<point x="132" y="675" type="line"/>
			<point x="134" y="730" type="line"/>
			<point x="90" y="730" type="line"/>
			<point x="90" y="710" type="line" smooth="yes"/>
			<point x="90" y="669"/>
			<point x="69" y="647"/>
			<point x="26" y="642" type="curve"/>
			<point x="26" y="636" type="line"/>
			<point x="95" y="636"/>
			<point x="122" y="652"/>
		</contour>
	</outline>
</glyph>
<glyph name="tildecomb" format="2">
	<advance width="250"/>
	<unicode hex="0303"/>
	<anchor x="125" y="639" name="_top"/>
	<outline>
		<contour>
			<point x="177" y="636" type="curve" smooth="yes"/>
			<point x="211" y="636"/>
			<point x="227" y="662"/>
			<point x="227" y="732" type="curve"/>
			<point x="220" y="732" type="line"/>
			<point x="211" y="703"/>
			<point x="199" y="688"/>
			<point x="181" y="688" type="curve"/>
			<point x="152" y="688"/>
			<point x="102" y="731"/>
			<point x="74" y="731" type="curve"/>
			<point x="40" y="731"/>
			<point x="24" y="705"/>
			<point x="24" y="635" type="curve"/>
			<point x="31" y="635" type="line"/>
			<point x="40" y="664"/>
			<point x="52" y="679"/>
			<point x="70" y="679" type="curve"/>
			<point x="99" y="679"/>
			<point x="149" y="636"/>
		</contour>
	</outline>
</glyph>
<glyph name="uni037E" format="2">
	<advance width="141"/>
	<unicode hex="037E"/>
	<outline>
		<contour>
			<point x="30" y="354" type="line"/>
			<point x="30" y="283" type="line"/>
			<point x="116" y="283" type="line"/>
			<point x="116" y="354" type="line"/>
		</contour>
		<component base="comma" xOffset="5"/>
	</outline>
</glyph>
<glyph name="tonos" format="2">
	<advance width="148"/>
	<unicode hex="0384"/>
	<outline>
		<contour>
			<point x="111" y="720" type="curve"/>
			<point x="111" y="730" type="line"/>
			<point x="43" y="730" type="line"/>
			<point x="45" y="719" type="line" smooth="yes"/>
			<point x="51.308" y="684.307"/>
			<point x="56.473" y="651.143"/>
			<point x="40" y="626" type="curve"/>
			<point x="45" y="621" type="line"/>
			<point x="89.215" y="658.017"/>
			<point x="111" y="689"/>
		</contour>
	</outline>
</glyph>
<glyph name="Epsilon" format="2">
	<advance width="228"/>
	<unicode hex="0395"/>
	<outline>
		<contour>
			<point x="30" y="730" type="line"/>
			<point x="105" y="730" type="line"/>
			<point x="105" y="0" type="line"/>
			<point x="30" y="0" type="line"/>
		</contour>
		<contour>
			<point x="41" y="665" type="line"/>
			<point x="41" y="730" type="line"/>
			<point x="203" y="730" type="line"/>
			<point x="203" y="665" type="line"/>
		</contour>
		<contour>
			<point x="176" y="374" type="line"/>
			<point x="82" y="374" type="line"/>
			<point x="82" y="396" type="line"/>
			<point x="176" y="396" type="line"/>
		</contour>
		<contour>
			<point x="41" y="0" type="line"/>
			<point x="41" y="65" type="line"/>
			<point x="213" y="65" type="line"/>
			<point x="213" y="0" type="line"/>
		</contour>
	</outline>
</glyph>
<glyph name="Iota" format="2">
	<advance width="135"/>
	<unicode hex="0399"/>
	<outline>
		<contour>
			<point x="30" y="730" type="line"/>
			<point x="105" y="730" type="line"/>
			<point x="105" y="0" type="line"/>
			<point x="30" y="0" type="line"/>
		</contour>
	</outline>
</glyph>
<glyph name="Nu" format="2">
	<advance width="280"/>
	<unicode hex="039D"/>
	<outline>
		<contour>
			<point x="69" y="730" type="line"/>
			<point x="96" y="730" type="line"/>
			<point x="212" y="0" type="line"/>
			<point x="184" y="0" type="line"/>
		</contour>
		<contour>
			<point x="25" y="730" type="line"/>
			<point x="85" y="730" type="line"/>
			<point x="93" y="607" type="line"/>
			<point x="76" y="607" type="line"/>
			<point x="90" y="376" type="line"/>
			<point x="96" y="0" type="line"/>
			<point x="25" y="0" type="line"/>
		</contour>
		<contour>
			<point x="255" y="0" type="line"/>
			<point x="195" y="0" type="line"/>
			<point x="187" y="123" type="line"/>
			<point x="204" y="123" type="line"/>
			<point x="190" y="354" type="line"/>
			<point x="183" y="730" type="line"/>
			<point x="255" y="730" type="line"/>
		</contour>
	</outline>
</glyph>
<glyph name="Tau" format="2">
	<advance width="246"/>
	<unicode hex="03A4"/>
	<outline>
		<contour>
			<point x="83" y="730" type="line"/>
			<point x="158" y="730" type="line"/>
			<point x="158" y="0" type="line"/>
			<point x="83" y="0" type="line"/>
		</contour>
		<contour>
			<point x="0" y="665" type="line"/>
			<point x="0" y="730" type="line"/>
			<point x="241" y="730" type="line"/>
			<point x="241" y="665" type="line"/>
		</contour>
	</outline>
</glyph>
<glyph name="Psi" format="2">
	<advance width="405"/>
	<unicode hex="03A8"/>
	<anchor x="202" y="760" name="top"/>
	<anchor x="240" y="0" name="bottom_right"/>
	<outline>
		<contour>
			<point x="186" y="210" type="line" smooth="yes"/>
			<point x="68" y="210"/>
			<point x="30" y="241"/>
			<point x="30" y="347" type="curve" smooth="yes"/>
			<point x="30" y="730" type="line"/>
			<point x="103" y="730" type="line"/>
			<point x="103" y="366" type="line" smooth="yes"/>
			<point x="103" y="285"/>
			<point x="125" y="270"/>
			<point x="198" y="270" type="curve" smooth="yes"/>
			<point x="218" y="270" type="line" smooth="yes"/>
			<point x="294" y="270"/>
			<point x="302" y="295"/>
			<point x="302" y="350" type="curve" smooth="yes"/>
			<point x="302" y="730" type="line"/>
			<point x="375" y="730" type="line"/>
			<point x="375" y="365" type="line" smooth="yes"/>
			<point x="375" y="247"/>
			<point x="321" y="210"/>
			<point x="206" y="210" type="curve" smooth="yes"/>
		</contour>
		<contour>
			<point x="166" y="730" type="line"/>
			<point x="239" y="730" type="line"/>
			<point x="239" y="0" type="line"/>
			<point x="166" y="0" type="line"/>
		</contour>
	</outline>
</glyph>
<glyph name="beta" format="2">
	<advance width="283"/>
	<unicode hex="03B2"/>
	<anchor x="505" y="674" name="top"/>
	<outline>
		<contour>
			<point x="35" y="-130" type="line"/>
			<point x="35" y="605" type="line" smooth="yes"/>
			<point x="35" y="703"/>
			<point x="87" y="740"/>
			<point x="146" y="740" type="curve" smooth="yes"/>
			<point x="210" y="740"/>
			<point x="248" y="709"/>
			<point x="248" y="623" type="curve" smooth="yes"/>
			<point x="248" y="515" type="line" smooth="yes"/>
			<point x="248" y="432"/>
			<point x="218" y="393"/>
			<point x="176" y="380" type="curve" smooth="yes"/>
			<point x="171" y="378"/>
			<point x="166" y="377"/>
			<point x="161" y="376" type="curve"/>
			<point x="162" y="368" type="line"/>
			<point x="216" y="374" type="line"/>
			<point x="242" y="355"/>
			<point x="248" y="299"/>
			<point x="248" y="236" type="curve" smooth="yes"/>
			<point x="248" y="232"/>
			<point x="248" y="229"/>
			<point x="248" y="225" type="curve" smooth="yes"/>
			<point x="248" y="160" type="line" smooth="yes"/>
			<point x="248" y="40"/>
			<point x="219" y="-10"/>
			<point x="155" y="-10" type="curve" smooth="yes"/>
			<point x="139" y="-10"/>
			<point x="120" y="-3"/>
			<point x="105" y="8" type="curve" smooth="yes"/>
			<point x="98" y="12"/>
			<point x="91" y="18"/>
			<point x="86" y="23" type="curve"/>
			<point x="80" y="17" type="line"/>
			<point x="105" y="-9" type="line"/>
			<point x="105" y="-130" type="line"/>
		</contour>
		<contour>
			<point x="105" y="74" type="line"/>
			<point x="118" y="61"/>
			<point x="132" y="54"/>
			<point x="148" y="54" type="curve" smooth="yes"/>
			<point x="167" y="54"/>
			<point x="176" y="68"/>
			<point x="176" y="154" type="curve" smooth="yes"/>
			<point x="176" y="275" type="line" smooth="yes"/>
			<point x="176" y="336"/>
			<point x="157" y="360"/>
			<point x="119" y="360" type="curve" smooth="yes"/>
			<point x="104" y="360" type="line"/>
			<point x="104" y="380" type="line"/>
			<point x="119" y="380" type="line" smooth="yes"/>
			<point x="152" y="380"/>
			<point x="176" y="406"/>
			<point x="176" y="455" type="curve" smooth="yes"/>
			<point x="176" y="589" type="line" smooth="yes"/>
			<point x="176" y="661"/>
			<point x="154" y="672"/>
			<point x="134" y="672" type="curve" smooth="yes"/>
			<point x="112" y="672"/>
			<point x="105" y="650"/>
			<point x="105" y="615" type="curve" smooth="yes"/>
		</contour>
	</outline>
</glyph>
<glyph name="epsilon" format="2">
	<advance width="237"/>
	<unicode hex="03B5"/>
	<outline>
		<contour>
			<point x="64" y="304" type="line"/>
			<point x="36" y="284"/>
			<point x="30" y="222"/>
			<point x="30" y="155" type="curve" smooth="yes"/>
			<point x="30" y="107" type="line"/>
			<point x="30" y="21"/>
			<point x="58" y="-10"/>
			<point x="112" y="-10" type="curve"/>
			<point x="172" y="-10"/>
			<point x="203" y="62"/>
			<point x="199" y="157" type="curve" smooth="yes"/>
			<point x="196" y="238" type="line"/>
			<point x="182" y="238" type="line"/>
			<point x="179" y="160" type="line"/>
			<point x="177" y="96"/>
			<point x="167" y="58"/>
			<point x="144" y="58" type="curve"/>
			<point x="121" y="58"/>
			<point x="100" y="69"/>
			<point x="100" y="141" type="curve" smooth="yes"/>
			<point x="100" y="205" type="line"/>
			<point x="100" y="266"/>
			<point x="123" y="290"/>
			<point x="161" y="290" type="curve" smooth="yes"/>
			<point x="179" y="290" type="line"/>
			<point x="179" y="310" type="line"/>
			<point x="161" y="310" type="line"/>
			<point x="128" y="310"/>
			<point x="104" y="336"/>
			<point x="104" y="385" type="curve" smooth="yes"/>
			<point x="104" y="484" type="line"/>
			<point x="104" y="520"/>
			<point x="114" y="542"/>
			<point x="150" y="542" type="curve"/>
			<point x="175" y="542"/>
			<point x="188" y="531"/>
			<point x="188" y="512" type="curve"/>
			<point x="188" y="486"/>
			<point x="181" y="449"/>
			<point x="124" y="370" type="curve"/>
			<point x="193" y="370" type="line"/>
			<point x="204" y="421"/>
			<point x="207" y="487"/>
			<point x="207" y="513" type="curve"/>
			<point x="207" y="576"/>
			<point x="182" y="610"/>
			<point x="130" y="610" type="curve"/>
			<point x="75" y="610"/>
			<point x="34" y="573"/>
			<point x="34" y="474" type="curve" smooth="yes"/>
			<point x="34" y="445" type="line"/>
			<point x="34" y="352"/>
			<point x="69" y="315"/>
			<point x="119" y="306" type="curve"/>
			<point x="118" y="298" type="line"/>
		</contour>
	</outline>
</glyph>
<glyph name="theta" format="2">
	<advance width="276"/>
	<unicode hex="03B8"/>
	<anchor x="143" y="640" name="top"/>
	<outline>
		<contour>
			<point x="132" y="672" type="curve" smooth="yes"/>
			<point x="110" y="672"/>
			<point x="105" y="650"/>
			<point x="105" y="615" type="curve" smooth="yes"/>
			<point x="105" y="141" type="line" smooth="yes"/>
			<point x="105" y="69"/>
			<point x="123" y="58"/>
			<point x="144" y="58" type="curve" smooth="yes"/>
			<point x="166" y="58"/>
			<point x="171" y="80"/>
			<point x="171" y="115" type="curve" smooth="yes"/>
			<point x="171" y="589" type="line" smooth="yes"/>
			<point x="171" y="661"/>
			<point x="152" y="672"/>
		</contour>
		<contour>
			<point x="132" y="-10" type="curve" smooth="yes"/>
			<point x="69" y="-10"/>
			<point x="35" y="21"/>
			<point x="35" y="107" type="curve" smooth="yes"/>
			<point x="35" y="605" type="line" smooth="yes"/>
			<point x="35" y="703"/>
			<point x="85" y="740"/>
			<point x="144" y="740" type="curve" smooth="yes"/>
			<point x="208" y="740"/>
			<point x="241" y="709"/>
			<point x="241" y="623" type="curve" smooth="yes"/>
			<point x="241" y="125" type="line" smooth="yes"/>
			<point x="241" y="27"/>
			<point x="191" y="-10"/>
		</contour>
		<contour>
			<point x="206" y="374" type="line"/>
			<point x="82" y="374" type="line"/>
			<point x="82" y="394" type="line"/>
			<point x="206" y="394" type="line"/>
		</contour>
	</outline>
</glyph>
<glyph name="uni03C2" format="2">
	<advance width="237"/>
	<unicode hex="03C2"/>
	<anchor x="125" y="640" name="top"/>
	<anchor x="111" y="0" name="bottom"/>
	<outline>
		<contour>
			<point x="8" y="487" type="curve" smooth="yes"/>
			<point x="8" y="573"/>
			<point x="61" y="610"/>
			<point x="124" y="610" type="curve"/>
			<point x="186" y="610"/>
			<point x="216" y="579"/>
			<point x="216" y="517" type="curve"/>
			<point x="216" y="464"/>
			<point x="212" y="405"/>
			<point x="205" y="360" type="curve"/>
			<point x="133" y="360" type="line"/>
			<point x="185" y="461"/>
			<point x="197" y="494"/>
			<point x="197" y="516" type="curve"/>
			<point x="197" y="534"/>
			<point x="177" y="542"/>
			<point x="124" y="542" type="curve"/>
			<point x="87" y="542"/>
			<point x="78" y="522"/>
			<point x="78" y="496" type="curve"/>
			<point x="78" y="347"/>
			<point x="213" y="152"/>
			<point x="213" y="-6" type="curve"/>
			<point x="213" y="-95"/>
			<point x="164" y="-130"/>
			<point x="107" y="-130" type="curve"/>
			<point x="58" y="-130"/>
			<point x="35" y="-100"/>
			<point x="35" y="-38" type="curve"/>
			<point x="35" y="-3"/>
			<point x="37" y="35"/>
			<point x="45" y="81" type="curve"/>
			<point x="109" y="81" type="line"/>
			<point x="69" y="3"/>
			<point x="54" y="-20"/>
			<point x="54" y="-37" type="curve"/>
			<point x="54" y="-55"/>
			<point x="69" y="-62"/>
			<point x="107" y="-62" type="curve"/>
			<point x="138" y="-62"/>
			<point x="145" y="-44"/>
			<point x="145" y="-18" type="curve"/>
			<point x="145" y="117"/>
			<point x="8" y="330"/>
		</contour>
	</outline>
</glyph>
<glyph name="upsilon" format="2">
	<advance width="276"/>
	<unicode hex="03C5"/>
	<anchor x="143" y="640" name="top"/>
	<outline>
		<contour>
			<point x="132" y="-10" type="curve" smooth="yes"/>
			<point x="69" y="-10"/>
			<point x="35" y="21"/>
			<point x="35" y="107" type="curve" smooth="yes"/>
			<point x="35" y="600" type="line"/>
			<point x="105" y="600" type="line"/>
			<point x="105" y="141" type="line" smooth="yes"/>
			<point x="105" y="69"/>
			<point x="123" y="58"/>
			<point x="144" y="58" type="curve" smooth="yes"/>
			<point x="166" y="58"/>
			<point x="171" y="80"/>
			<point x="171" y="115" type="curve" smooth="yes"/>
			<point x="171" y="600" type="line"/>
			<point x="241" y="600" type="line"/>
			<point x="241" y="125" type="line" smooth="yes"/>
			<point x="241" y="27"/>
			<point x="191" y="-10"/>
		</contour>
	</outline>
</glyph>
<glyph name="uni0414" format="2">
	<advance width="264"/>
	<unicode hex="0414"/>
	<outline>
		<contour>
			<point x="179" y="65" type="line"/>
			<point x="239" y="-107" type="line"/>
			<point x="259" y="-107" type="line"/>
			<point x="259" y="65" type="line"/>
		</contour>
		<contour>
			<point x="5" y="-107" type="line"/>
			<point x="25" y="-107" type="line"/>
			<point x="85" y="65" type="line"/>
			<point x="5" y="65" type="line"/>
		</contour>
		<contour>
			<point x="5" y="0" type="line"/>
			<point x="227" y="0" type="line"/>
			<point x="209" y="65" type="line"/>
			<point x="5" y="65" type="line"/>
		</contour>
		<contour>
			<point x="83" y="730" type="curve"/>
			<point x="56" y="730" type="line"/>
			<point x="56" y="206"/>
			<point x="56" y="109"/>
			<point x="25" y="65" type="curve"/>
			<point x="25" y="0" type="line"/>
			<point x="69" y="0" type="line"/>
			<point x="84" y="119"/>
			<point x="83" y="270"/>
		</contour>
		<contour>
			<point x="229" y="0" type="line"/>
			<point x="229" y="730" type="line"/>
			<point x="154" y="730" type="line"/>
			<point x="154" y="0" type="line"/>
		</contour>
		<contour>
			<point x="56" y="665" type="line"/>
			<point x="229" y="665" type="line"/>
			<point x="229" y="730" type="line"/>
			<point x="56" y="730" type="line"/>
		</contour>
	</outline>
</glyph>
<glyph name="uni0416" format="2">
	<advance width="381"/>
	<unicode hex="0416"/>
	<outline>
		<contour>
			<point x="153" y="332" type="curve"/>
			<point x="153" y="0" type="line"/>
			<point x="228" y="0" type="line"/>
			<point x="228" y="332" type="line" smooth="yes"/>
			<point x="228" y="380"/>
			<point x="240" y="418"/>
			<point x="255" y="481" type="curve"/>
			<point x="279" y="580"/>
			<point x="315" y="644"/>
			<point x="364" y="658" type="curve"/>
			<point x="381" y="663" type="line"/>
			<point x="381" y="730" type="line"/>
			<point x="291" y="730" type="line"/>
			<point x="214" y="411" type="line"/>
			<point x="204" y="413" type="line"/>
			<point x="228" y="649" type="line"/>
			<point x="228" y="730" type="line"/>
			<point x="153" y="730" type="line"/>
			<point x="153" y="649" type="line"/>
			<point x="177" y="413" type="line"/>
			<point x="167" y="411" type="line"/>
			<point x="90" y="730" type="line"/>
			<point x="0" y="730" type="line"/>
			<point x="0" y="663" type="line"/>
			<point x="17" y="658" type="line" smooth="yes"/>
			<point x="66" y="644"/>
			<point x="97" y="580"/>
			<point x="126" y="481" type="curve"/>
			<point x="144" y="418"/>
			<point x="153" y="380"/>
		</contour>
		<contour>
			<point x="56" y="401" type="line"/>
			<point x="5" y="0" type="line"/>
			<point x="86" y="0" type="line"/>
			<point x="108" y="283" type="line" smooth="yes"/>
			<point x="114" y="361"/>
			<point x="123" y="377"/>
			<point x="153" y="372" type="curve"/>
			<point x="150" y="404" type="line"/>
			<point x="138" y="393" type="line"/>
		</contour>
		<contour>
			<point x="273" y="283" type="curve"/>
			<point x="295" y="0" type="line"/>
			<point x="376" y="0" type="line"/>
			<point x="325" y="401" type="line"/>
			<point x="243" y="393" type="line"/>
			<point x="231" y="404" type="line"/>
			<point x="228" y="372" type="line"/>
			<point x="258" y="377"/>
			<point x="267" y="361"/>
		</contour>
	</outline>
</glyph>
<glyph name="uni041F" format="2">
	<advance width="290"/>
	<unicode hex="041F"/>
	<outline>
		<contour>
			<point x="185" y="730" type="line"/>
			<point x="185" y="0" type="line"/>
			<point x="260" y="0" type="line"/>
			<point x="260" y="730" type="line"/>
		</contour>
		<contour>
			<point x="30" y="730" type="line"/>
			<point x="30" y="0" type="line"/>
			<point x="105" y="0" type="line"/>
			<point x="105" y="730" type="line"/>
		</contour>
		<contour>
			<point x="82" y="730" type="line"/>
			<point x="82" y="665" type="line"/>
			<point x="206" y="665" type="line"/>
			<point x="206" y="730" type="line"/>
		</contour>
	</outline>
</glyph>
<glyph name="uni0424" format="2">
	<advance width="405"/>
	<unicode hex="0424"/>
	<anchor x="202" y="760" name="top"/>
	<anchor x="240" y="0" name="bottom_right"/>
	<outline>
		<contour>
			<point x="211" y="600" type="curve"/>
			<point x="191" y="600" type="line" smooth="yes"/>
			<point x="112" y="600"/>
			<point x="103" y="575"/>
			<point x="103" y="520" type="curve"/>
			<point x="103" y="216" type="line" smooth="yes"/>
			<point x="103" y="135"/>
			<point x="125" y="120"/>
			<point x="198" y="120" type="curve"/>
			<point x="218" y="120" type="line" smooth="yes"/>
			<point x="294" y="120"/>
			<point x="302" y="145"/>
			<point x="302" y="200" type="curve"/>
			<point x="302" y="504" type="line" smooth="yes"/>
			<point x="302" y="586"/>
			<point x="281" y="600"/>
		</contour>
		<contour>
			<point x="206" y="60" type="curve"/>
			<point x="186" y="60" type="line" smooth="yes"/>
			<point x="68" y="60"/>
			<point x="30" y="91"/>
			<point x="30" y="197" type="curve"/>
			<point x="30" y="505" type="line" smooth="yes"/>
			<point x="30" y="623"/>
			<point x="84" y="660"/>
			<point x="198" y="660" type="curve"/>
			<point x="218" y="660" type="line" smooth="yes"/>
			<point x="338" y="660"/>
			<point x="375" y="629"/>
			<point x="375" y="523" type="curve"/>
			<point x="375" y="215" type="line" smooth="yes"/>
			<point x="375" y="97"/>
			<point x="321" y="60"/>
		</contour>
		<contour>
			<point x="166" y="730" type="line"/>
			<point x="239" y="730" type="line"/>
			<point x="239" y="0" type="line"/>
			<point x="166" y="0" type="line"/>
		</contour>
	</outline>
</glyph>
<glyph name="uni0428" format="2">
	<advance width="395"/>
	<unicode hex="0428"/>
	<outline>
		<contour>
			<point x="30" y="730" type="line"/>
			<point x="30" y="0" type="line"/>
			<point x="365" y="0" type="line"/>
			<point x="365" y="730" type="line"/>
			<point x="290" y="730" type="line"/>
			<point x="290" y="65" type="line"/>
			<point x="235" y="65" type="line"/>
			<point x="235" y="730" type="line"/>
			<point x="160" y="730" type="line"/>
			<point x="160" y="65" type="line"/>
			<point x="105" y="65" type="line"/>
			<point x="105" y="730" type="line"/>
		</contour>
	</outline>
</glyph>
<glyph name="uni0429" format="2">
	<advance width="400"/>
	<unicode hex="0429"/>
	<outline>
		<contour>
			<point x="315" y="65" type="line"/>
			<point x="375" y="-107" type="line"/>
			<point x="395" y="-107" type="line"/>
			<point x="395" y="65" type="line"/>
		</contour>
		<component base="uni0428"/>
	</outline>
</glyph>
<glyph name="uni042F" format="2">
	<advance width="286"/>
	<unicode hex="042F"/>
	<outline>
		<contour>
			<point x="181" y="0" type="line"/>
			<point x="181" y="730" type="line"/>
			<point x="256" y="730" type="line"/>
			<point x="256" y="0" type="line"/>
		</contour>
		<contour>
			<point x="162" y="299" type="curve"/>
			<point x="215" y="299" type="line"/>
			<point x="214" y="281" type="line"/>
			<point x="158" y="281" type="line" smooth="yes"/>
			<point x="86" y="281"/>
			<point x="30" y="315"/>
			<point x="30" y="405" type="curve"/>
			<point x="30" y="604" type="line" smooth="yes"/>
			<point x="30" y="695"/>
			<point x="80" y="730"/>
			<point x="166" y="730" type="curve"/>
			<point x="215" y="730" type="line"/>
			<point x="215" y="662" type="line"/>
			<point x="215" y="662"/>
			<point x="173" y="662"/>
			<point x="173" y="662" type="curve"/>
			<point x="123" y="662"/>
			<point x="105" y="644"/>
			<point x="105" y="579" type="curve"/>
			<point x="105" y="375" type="line" smooth="yes"/>
			<point x="105" y="330"/>
			<point x="114" y="299"/>
		</contour>
		<contour>
			<point x="132" y="272" type="line"/>
			<point x="133" y="288" type="line"/>
			<point x="184" y="284" type="line"/>
			<point x="184" y="270" type="line"/>
			<point x="144" y="271"/>
			<point x="129" y="257"/>
			<point x="124" y="226" type="curve"/>
			<point x="91" y="0" type="line"/>
			<point x="15" y="0" type="line"/>
			<point x="66" y="272" type="line"/>
		</contour>
	</outline>
</glyph>
<glyph name="uni0432" format="2">
	<advance width="262"/>
	<unicode hex="0432"/>
	<outline>
		<contour>
			<point x="35" y="600" type="line"/>
			<point x="105" y="600" type="line"/>
			<point x="105" y="0" type="line"/>
			<point x="35" y="0" type="line"/>
		</contour>
		<contour>
			<point x="71" y="306" type="line"/>
			<point x="124" y="329" type="line"/>
			<point x="157" y="343"/>
			<point x="161" y="370"/>
			<point x="161" y="395" type="curve"/>
			<point x="161" y="449" type="line" smooth="yes"/>
			<point x="161" y="514"/>
			<point x="151" y="532"/>
			<point x="113" y="532" type="curve"/>
			<point x="113" y="532"/>
			<point x="71" y="532"/>
			<point x="71" y="532" type="curve"/>
			<point x="71" y="600" type="line"/>
			<point x="120" y="600" type="line" smooth="yes"/>
			<point x="200" y="600"/>
			<point x="230" y="565"/>
			<point x="230" y="474" type="curve"/>
			<point x="230" y="465" type="line" smooth="yes"/>
			<point x="230" y="376"/>
			<point x="193" y="339"/>
			<point x="128" y="312" type="curve"/>
			<point x="78" y="291" type="line"/>
		</contour>
		<contour>
			<point x="103" y="288" type="curve"/>
			<point x="102" y="314" type="line"/>
			<point x="153" y="325" type="line"/>
			<point x="153" y="313" type="line"/>
			<point x="205" y="319" type="line"/>
			<point x="235" y="297"/>
			<point x="245" y="240"/>
			<point x="245" y="171" type="curve"/>
			<point x="245" y="126" type="line" smooth="yes"/>
			<point x="245" y="35"/>
			<point x="209" y="0"/>
			<point x="120" y="0" type="curve"/>
			<point x="71" y="0" type="line"/>
			<point x="71" y="68" type="line"/>
			<point x="113" y="68" type="line" smooth="yes"/>
			<point x="162" y="68"/>
			<point x="176" y="86"/>
			<point x="176" y="151" type="curve"/>
			<point x="176" y="233" type="line" smooth="yes"/>
			<point x="176" y="278"/>
			<point x="168" y="299"/>
			<point x="133" y="299" type="curve"/>
			<point x="121" y="299"/>
			<point x="112" y="294"/>
		</contour>
	</outline>
</glyph>
<glyph name="uni0433" format="2">
	<advance width="203"/>
	<unicode hex="0433"/>
	<outline>
		<contour>
			<point x="35" y="600" type="line"/>
			<point x="35" y="0" type="line"/>
			<point x="105" y="0" type="line"/>
			<point x="105" y="600" type="line"/>
		</contour>
		<contour>
			<point x="45" y="600" type="line"/>
			<point x="45" y="535" type="line"/>
			<point x="198" y="535" type="line"/>
			<point x="198" y="600" type="line"/>
		</contour>
	</outline>
</glyph>
<glyph name="uni0436" format="2">
	<advance width="368"/>
	<unicode hex="0436"/>
	<outline>
		<contour>
			<point x="149" y="232" type="curve"/>
			<point x="149" y="0" type="line"/>
			<point x="219" y="0" type="line"/>
			<point x="219" y="232" type="line" smooth="yes"/>
			<point x="219" y="295"/>
			<point x="220" y="320"/>
			<point x="250" y="412" type="curve"/>
			<point x="277" y="495"/>
			<point x="308" y="522"/>
			<point x="346" y="533" type="curve"/>
			<point x="363" y="538" type="line"/>
			<point x="363" y="600" type="line"/>
			<point x="273" y="600" type="line"/>
			<point x="205" y="320" type="line"/>
			<point x="195" y="322" type="line"/>
			<point x="219" y="519" type="line"/>
			<point x="219" y="600" type="line"/>
			<point x="149" y="600" type="line"/>
			<point x="149" y="519" type="line"/>
			<point x="173" y="322" type="line"/>
			<point x="163" y="320" type="line"/>
			<point x="95" y="600" type="line"/>
			<point x="5" y="600" type="line"/>
			<point x="5" y="538" type="line"/>
			<point x="22" y="533" type="line" smooth="yes"/>
			<point x="61" y="522"/>
			<point x="93" y="495"/>
			<point x="118" y="412" type="curve"/>
			<point x="146" y="320"/>
			<point x="149" y="295"/>
		</contour>
		<contour>
			<point x="47" y="319" type="line"/>
			<point x="11" y="0" type="line"/>
			<point x="87" y="0" type="line"/>
			<point x="97" y="199" type="line" smooth="yes"/>
			<point x="101" y="273"/>
			<point x="112" y="290"/>
			<point x="151" y="283" type="curve"/>
			<point x="148" y="317" type="line"/>
			<point x="136" y="306" type="line"/>
		</contour>
		<contour>
			<point x="271" y="199" type="curve"/>
			<point x="281" y="0" type="line"/>
			<point x="357" y="0" type="line"/>
			<point x="321" y="319" type="line"/>
			<point x="232" y="306" type="line"/>
			<point x="220" y="317" type="line"/>
			<point x="217" y="283" type="line"/>
			<point x="256" y="290"/>
			<point x="267" y="273"/>
		</contour>
	</outline>
</glyph>
<glyph name="uni0437" format="2">
	<advance width="237"/>
	<unicode hex="0437"/>
	<outline>
		<contour>
			<point x="173" y="304" type="curve"/>
			<point x="119" y="298" type="line"/>
			<point x="118" y="306" type="line"/>
			<point x="168" y="315"/>
			<point x="203" y="352"/>
			<point x="203" y="445" type="curve"/>
			<point x="203" y="474" type="line" smooth="yes"/>
			<point x="203" y="573"/>
			<point x="162" y="610"/>
			<point x="107" y="610" type="curve"/>
			<point x="55" y="610"/>
			<point x="30" y="576"/>
			<point x="30" y="513" type="curve"/>
			<point x="30" y="487"/>
			<point x="33" y="421"/>
			<point x="44" y="370" type="curve"/>
			<point x="113" y="370" type="line"/>
			<point x="56" y="449"/>
			<point x="49" y="486"/>
			<point x="49" y="512" type="curve"/>
			<point x="49" y="531"/>
			<point x="62" y="542"/>
			<point x="87" y="542" type="curve"/>
			<point x="123" y="542"/>
			<point x="133" y="520"/>
			<point x="133" y="484" type="curve"/>
			<point x="133" y="385" type="line" smooth="yes"/>
			<point x="133" y="336"/>
			<point x="109" y="310"/>
			<point x="76" y="310" type="curve"/>
			<point x="58" y="310" type="line"/>
			<point x="58" y="290" type="line"/>
			<point x="76" y="290" type="line" smooth="yes"/>
			<point x="114" y="290"/>
			<point x="137" y="266"/>
			<point x="137" y="205" type="curve"/>
			<point x="137" y="141" type="line" smooth="yes"/>
			<point x="137" y="69"/>
			<point x="116" y="58"/>
			<point x="93" y="58" type="curve"/>
			<point x="70" y="58"/>
			<point x="60" y="96"/>
			<point x="58" y="160" type="curve"/>
			<point x="55" y="238" type="line"/>
			<point x="41" y="238" type="line"/>
			<point x="38" y="157" type="line" smooth="yes"/>
			<point x="34" y="62"/>
			<point x="65" y="-10"/>
			<point x="125" y="-10" type="curve"/>
			<point x="179" y="-10"/>
			<point x="207" y="21"/>
			<point x="207" y="107" type="curve"/>
			<point x="207" y="155" type="line" smooth="yes"/>
			<point x="207" y="222"/>
			<point x="201" y="284"/>
		</contour>
	</outline>
</glyph>
<glyph name="uni0438" format="2">
	<advance width="290"/>
	<unicode hex="0438"/>
	<outline>
		<contour>
			<point x="78" y="0" type="line"/>
			<point x="184" y="600" type="line"/>
			<point x="211" y="600" type="line"/>
			<point x="106" y="0" type="line"/>
		</contour>
		<contour>
			<point x="187" y="477" type="line"/>
			<point x="195" y="600" type="line"/>
			<point x="255" y="600" type="line"/>
			<point x="255" y="0" type="line"/>
			<point x="184" y="0" type="line"/>
			<point x="190" y="246" type="line"/>
			<point x="204" y="477" type="line"/>
		</contour>
		<contour>
			<point x="103" y="123" type="line"/>
			<point x="95" y="0" type="line"/>
			<point x="35" y="0" type="line"/>
			<point x="35" y="600" type="line"/>
			<point x="107" y="600" type="line"/>
			<point x="100" y="354" type="line"/>
			<point x="86" y="123" type="line"/>
		</contour>
	</outline>
</glyph>
<glyph name="uni043B" format="2">
	<advance width="251"/>
	<unicode hex="043B"/>
	<outline>
		<contour>
			<point x="5" y="72" type="curve"/>
			<point x="5" y="0" type="line"/>
			<point x="75" y="0" type="line"/>
			<point x="80" y="114"/>
			<point x="75" y="225"/>
			<point x="75" y="600" type="curve"/>
			<point x="50" y="600" type="line"/>
			<point x="50" y="193"/>
			<point x="48" y="103"/>
		</contour>
		<contour>
			<point x="146" y="600" type="line"/>
			<point x="146" y="0" type="line"/>
			<point x="216" y="0" type="line"/>
			<point x="216" y="600" type="line"/>
		</contour>
		<contour>
			<point x="58" y="600" type="line"/>
			<point x="58" y="535" type="line"/>
			<point x="162" y="535" type="line"/>
			<point x="162" y="600" type="line"/>
		</contour>
	</outline>
</glyph>
<glyph name="uni043F" format="2">
	<advance width="278"/>
	<unicode hex="043F"/>
	<outline>
		<contour>
			<point x="173" y="600" type="line"/>
			<point x="173" y="0" type="line"/>
			<point x="243" y="0" type="line"/>
			<point x="243" y="600" type="line"/>
		</contour>
		<contour>
			<point x="35" y="600" type="line"/>
			<point x="35" y="0" type="line"/>
			<point x="105" y="0" type="line"/>
			<point x="105" y="600" type="line"/>
		</contour>
		<contour>
			<point x="55" y="600" type="line"/>
			<point x="55" y="535" type="line"/>
			<point x="228" y="535" type="line"/>
			<point x="228" y="600" type="line"/>
		</contour>
	</outline>
</glyph>
<glyph name="uni0442" format="2">
	<advance width="223"/>
	<unicode hex="0442"/>
	<outline>
		<contour>
			<point x="77" y="600" type="line"/>
			<point x="77" y="0" type="line"/>
			<point x="147" y="0" type="line"/>
			<point x="147" y="600" type="line"/>
		</contour>
		<contour>
			<point x="5" y="600" type="line"/>
			<point x="5" y="535" type="line"/>
			<point x="218" y="535" type="line"/>
			<point x="218" y="600" type="line"/>
		</contour>
	</outline>
</glyph>
<glyph name="uni0449" format="2">
	<advance width="386"/>
	<unicode hex="0449"/>
	<outline>
		<contour>
			<point x="306" y="65" type="line"/>
			<point x="361" y="-97" type="line"/>
			<point x="381" y="-97" type="line"/>
			<point x="381" y="65" type="line"/>
		</contour>
		<component base="uni0448"/>
	</outline>
</glyph>
<glyph name="uni044C" format="2">
	<advance width="246"/>
	<unicode hex="044C"/>
	<outline>
		<contour>
			<point x="105" y="600" type="line"/>
			<point x="105" y="0" type="line"/>
			<point x="35" y="0" type="line"/>
			<point x="35" y="600" type="line"/>
		</contour>
		<contour>
			<point x="115" y="312" type="curve"/>
			<point x="62" y="312" type="line"/>
			<point x="62" y="380" type="line"/>
			<point x="62" y="380"/>
			<point x="107" y="380"/>
			<point x="107" y="380" type="curve"/>
			<point x="191" y="380"/>
			<point x="231" y="347"/>
			<point x="231" y="245" type="curve"/>
			<point x="231" y="126" type="line" smooth="yes"/>
			<point x="231" y="30"/>
			<point x="194" y="0"/>
			<point x="115" y="0" type="curve"/>
			<point x="71" y="0" type="line"/>
			<point x="71" y="68" type="line"/>
			<point x="71" y="68"/>
			<point x="113" y="68"/>
			<point x="113" y="68" type="curve"/>
			<point x="146" y="68"/>
			<point x="161" y="85"/>
			<point x="161" y="151" type="curve"/>
			<point x="161" y="255" type="line" smooth="yes"/>
			<point x="161" y="304"/>
			<point x="146" y="312"/>
		</contour>
	</outline>
</glyph>
<glyph name="uni0457" format="2">
	<advance width="141"/>
	<unicode hex="0457"/>
	<anchor x="75" y="637" name="top"/>
	<outline>
		<contour>
			<point x="131" y="730" type="line"/>
			<point x="80" y="730" type="line"/>
			<point x="80" y="679" type="line"/>
			<point x="131" y="679" type="line"/>
		</contour>
		<contour>
			<point x="61" y="730" type="line"/>
			<point x="10" y="730" type="line"/>
			<point x="10" y="679" type="line"/>
			<point x="61" y="679" type="line"/>
		</contour>
		<component base="dotlessi"/>
	</outline>
</glyph>
<glyph name="uni0491" format="2">
	<advance width="203"/>
	<unicode hex="0491"/>
	<outline>
		<contour>
			<point x="178" y="730" type="line"/>
			<point x="133" y="568" type="line"/>
			<point x="198" y="568" type="line"/>
			<point x="198" y="730" type="line"/>
		</contour>
		<component base="uni0433"/>
	</outline>
</glyph>
<glyph name="endash" format="2">
	<advance width="475"/>
	<unicode hex="2013"/>
	<outline>
		<contour>
			<point x="455" y="314" type="line"/>
			<point x="20" y="314" type="line"/>
			<point x="20" y="347" type="line"/>
			<point x="455" y="347" type="line"/>
		</contour>
	</outline>
</glyph>
<glyph name="dagger" format="2">
	<advance width="302"/>
	<unicode hex="2020"/>
	<outline>
		<contour>
			<point x="143" y="542" type="line"/>
			<point x="159" y="542" type="line"/>
			<point x="196" y="728" type="line"/>
			<point x="188" y="735" type="line"/>
			<point x="151" y="715" type="line"/>
			<point x="114" y="735" type="line"/>
			<point x="106" y="728" type="line"/>
		</contour>
		<contour>
			<point x="159" y="516" type="line"/>
			<point x="143" y="516" type="line"/>
			<point x="106" y="2" type="line"/>
			<point x="114" y="-5" type="line"/>
			<point x="151" y="15" type="line"/>
			<point x="188" y="-5" type="line"/>
			<point x="196" y="2" type="line"/>
		</contour>
		<contour>
			<point x="138" y="521" type="line"/>
			<point x="138" y="537" type="line"/>
			<point x="22" y="572" type="line"/>
			<point x="15" y="564" type="line"/>
			<point x="35" y="529" type="line"/>
			<point x="15" y="494" type="line"/>
			<point x="22" y="486" type="line"/>
		</contour>
		<contour>
			<point x="280" y="572" type="line"/>
			<point x="164" y="537" type="line"/>
			<point x="164" y="521" type="line"/>
			<point x="280" y="486" type="line"/>
			<point x="287" y="494" type="line"/>
			<point x="267" y="529" type="line"/>
			<point x="287" y="564" type="line"/>
		</contour>
		<contour>
			<point x="159" y="542" type="line"/>
			<point x="143" y="542" type="line"/>
			<point x="138" y="537" type="line"/>
			<point x="138" y="521" type="line"/>
			<point x="143" y="516" type="line"/>
			<point x="159" y="516" type="line"/>
			<point x="164" y="521" type="line"/>
			<point x="164" y="537" type="line"/>
		</contour>
	</outline>
</glyph>
<glyph name="daggerdbl" format="2">
	<advance width="302"/>
	<unicode hex="2021"/>
	<outline>
		<contour>
			<point x="143" y="492" type="line"/>
			<point x="159" y="492" type="line"/>
			<point x="196" y="728" type="line"/>
			<point x="188" y="735" type="line"/>
			<point x="151" y="715" type="line"/>
			<point x="114" y="735" type="line"/>
			<point x="106" y="728" type="line"/>
		</contour>
		<contour>
			<point x="138" y="471" type="line"/>
			<point x="138" y="487" type="line"/>
			<point x="22" y="522" type="line"/>
			<point x="15" y="514" type="line"/>
			<point x="35" y="479" type="line"/>
			<point x="15" y="444" type="line"/>
			<point x="22" y="436" type="line"/>
		</contour>
		<contour>
			<point x="280" y="522" type="line"/>
			<point x="164" y="487" type="line"/>
			<point x="164" y="471" type="line"/>
			<point x="280" y="436" type="line"/>
			<point x="287" y="444" type="line"/>
			<point x="267" y="479" type="line"/>
			<point x="287" y="514" type="line"/>
		</contour>
		<contour>
			<point x="159" y="492" type="line"/>
			<point x="143" y="492" type="line"/>
			<point x="138" y="487" type="line"/>
			<point x="138" y="471" type="line"/>
			<point x="143" y="466" type="line"/>
			<point x="159" y="466" type="line"/>
			<point x="164" y="471" type="line"/>
			<point x="164" y="487" type="line"/>
		</contour>
		<contour>
			<point x="196" y="2" type="line"/>
			<point x="159" y="238" type="line"/>
			<point x="143" y="238" type="line"/>
			<point x="106" y="2" type="line"/>
			<point x="114" y="-5" type="line"/>
			<point x="151" y="15" type="line"/>
			<point x="188" y="-5" type="line"/>
		</contour>
		<contour>
			<point x="22" y="208" type="line"/>
			<point x="138" y="243" type="line"/>
			<point x="138" y="259" type="line"/>
			<point x="22" y="294" type="line"/>
			<point x="15" y="286" type="line"/>
			<point x="35" y="251" type="line"/>
			<point x="15" y="216" type="line"/>
		</contour>
		<contour>
			<point x="164" y="259" type="line"/>
			<point x="164" y="243" type="line"/>
			<point x="280" y="208" type="line"/>
			<point x="287" y="216" type="line"/>
			<point x="267" y="251" type="line"/>
			<point x="287" y="286" type="line"/>
			<point x="280" y="294" type="line"/>
		</contour>
		<contour>
			<point x="138" y="243" type="line"/>
			<point x="143" y="238" type="line"/>
			<point x="159" y="238" type="line"/>
			<point x="164" y="243" type="line"/>
			<point x="164" y="259" type="line"/>
			<point x="159" y="264" type="line"/>
			<point x="143" y="264" type="line"/>
			<point x="138" y="259" type="line"/>
		</contour>
		<contour>
			<point x="143" y="466" type="line"/>
			<point x="143" y="264" type="line"/>
			<point x="159" y="264" type="line"/>
			<point x="159" y="466" type="line"/>
		</contour>
	</outline>
</glyph>
<glyph name="bullet" format="2">
	<advance width="176"/>
	<unicode hex="2022"/>
	<outline>
		<contour>
			<point x="20" y="386" type="line"/>
			<point x="20" y="275" type="line"/>
			<point x="156" y="275" type="line"/>
			<point x="156" y="386" type="line"/>
		</contour>
	</outline>
</glyph>
<glyph name="Euro" format="2">
	<advance width="255"/>
	<unicode hex="20AC"/>
	<anchor x="137" y="0" name="bottom"/>
	<outline>
		<contour>
			<point x="191" y="369" type="line"/>
			<point x="17" y="369" type="line"/>
			<point x="21" y="389" type="line"/>
			<point x="195" y="389" type="line"/>
		</contour>
		<contour>
			<point x="180" y="309" type="line"/>
			<point x="6" y="309" type="line"/>
			<point x="10" y="329" type="line"/>
			<point x="184" y="329" type="line"/>
		</contour>
		<component base="C" xOffset="19"/>
	</outline>
</glyph>
<glyph name="uni2116" format="2">
	<advance width="511"/>
	<unicode hex="2116"/>
	<anchor x="146" y="760" name="top"/>
	<outline>
		<contour>
			<point x="377" y="682" type="curve" smooth="yes"/>
			<point x="355" y="682"/>
			<point x="350" y="660"/>
			<point x="350" y="625" type="curve"/>
			<point x="350" y="521" type="line" smooth="yes"/>
			<point x="350" y="449"/>
			<point x="368" y="438"/>
			<point x="389" y="438" type="curve"/>
			<point x="411" y="438"/>
			<point x="416" y="460"/>
			<point x="416" y="495" type="curve"/>
			<point x="416" y="599" type="line" smooth="yes"/>
			<point x="416" y="671"/>
			<point x="397" y="682"/>
		</contour>
		<contour>
			<point x="377" y="380" type="curve" smooth="yes"/>
			<point x="314" y="380"/>
			<point x="290" y="411"/>
			<point x="290" y="497" type="curve"/>
			<point x="290" y="605" type="line" smooth="yes"/>
			<point x="290" y="703"/>
			<point x="330" y="740"/>
			<point x="389" y="740" type="curve"/>
			<point x="453" y="740"/>
			<point x="476" y="709"/>
			<point x="476" y="623" type="curve"/>
			<point x="476" y="515" type="line" smooth="yes"/>
			<point x="476" y="417"/>
			<point x="436" y="380"/>
		</contour>
		<contour>
			<point x="468" y="312" type="line"/>
			<point x="300" y="312" type="line"/>
			<point x="300" y="345" type="line"/>
			<point x="468" y="345" type="line"/>
		</contour>
		<component base="N" xOffset="5"/>
	</outline>
</glyph>
<glyph name="uni2126" format="2">
	<advance width="310"/>
	<unicode hex="2126"/>
	<anchor x="159" y="760" name="top"/>
	<outline>
		<contour>
			<point x="305" y="0" type="line"/>
			<point x="5" y="0" type="line"/>
			<point x="5" y="126" type="line"/>
			<point x="49" y="36"/>
			<point x="91" y="18"/>
			<point x="135" y="17" type="curve"/>
			<point x="135" y="27" type="line"/>
			<point x="80" y="34"/>
			<point x="42" y="86"/>
			<point x="42" y="163" type="curve" smooth="yes"/>
			<point x="42" y="605" type="line" smooth="yes"/>
			<point x="42" y="703"/>
			<point x="96" y="740"/>
			<point x="161" y="740" type="curve" smooth="yes"/>
			<point x="231" y="740"/>
			<point x="268" y="709"/>
			<point x="268" y="623" type="curve" smooth="yes"/>
			<point x="268" y="163" type="line" smooth="yes"/>
			<point x="268" y="86"/>
			<point x="230" y="34"/>
			<point x="175" y="27" type="curve"/>
			<point x="175" y="17" type="line"/>
			<point x="219" y="18"/>
			<point x="261" y="36"/>
			<point x="305" y="126" type="curve"/>
		</contour>
		<contour>
			<point x="154" y="672" type="curve" smooth="yes"/>
			<point x="124" y="672"/>
			<point x="117" y="650"/>
			<point x="117" y="615" type="curve" smooth="yes"/>
			<point x="117" y="151" type="line" smooth="yes"/>
			<point x="117" y="79"/>
			<point x="137" y="68"/>
			<point x="161" y="68" type="curve" smooth="yes"/>
			<point x="187" y="68"/>
			<point x="193" y="99"/>
			<point x="193" y="148" type="curve" smooth="yes"/>
			<point x="193" y="589" type="line" smooth="yes"/>
			<point x="193" y="661"/>
			<point x="174" y="672"/>
		</contour>
	</outline>
</glyph>
<glyph name="C.2" format="2">
	<advance width="229"/>
	<outline>
		<contour>
			<point x="9" y="368" type="line"/>
			<point x="132" y="730" type="line"/>
			<point x="228" y="730" type="line"/>
			<point x="62" y="365" type="line"/>
			<point x="9" y="365" type="line"/>
		</contour>
		<contour>
			<point x="229" y="0" type="line"/>
			<point x="132" y="0" type="line"/>
			<point x="9" y="362" type="line"/>
			<point x="9" y="365" type="line"/>
			<point x="62" y="365" type="line"/>
		</contour>
	</outline>
</glyph>
<glyph name="M.2" format="2">
	<advance width="507"/>
	<outline>
		<contour>
			<point x="35" y="730" type="line"/>
			<point x="105" y="730" type="line"/>
			<point x="100" y="522" type="line"/>
			<point x="77" y="522" type="line"/>
			<point x="104" y="0" type="line"/>
			<point x="25" y="0" type="line"/>
		</contour>
		<contour>
			<point x="392" y="522" type="line"/>
			<point x="411" y="730" type="line"/>
			<point x="472" y="730" type="line"/>
			<point x="482" y="0" type="line"/>
			<point x="405" y="0" type="line"/>
			<point x="418" y="522" type="line"/>
		</contour>
		<contour>
			<point x="51" y="730" type="line"/>
			<point x="110" y="730" type="line"/>
			<point x="190" y="257" type="line"/>
			<point x="201" y="257" type="line"/>
			<point x="191" y="50" type="line"/>
			<point x="170" y="50" type="line"/>
		</contour>
		<contour>
			<point x="201" y="257" type="line"/>
			<point x="239" y="730" type="line"/>
			<point x="280" y="730" type="line"/>
			<point x="246" y="545" type="line"/>
			<point x="201" y="50" type="line"/>
			<point x="170" y="50" type="line"/>
		</contour>
		<contour>
			<point x="237" y="497" type="line"/>
			<point x="280" y="730" type="line"/>
			<point x="340" y="257" type="line"/>
			<point x="351" y="257" type="line"/>
			<point x="343" y="50" type="line"/>
			<point x="312" y="50" type="line"/>
			<point x="250" y="497" type="line"/>
		</contour>
		<contour>
			<point x="351" y="257" type="line"/>
			<point x="411" y="730" type="line"/>
			<point x="435" y="730" type="line"/>
			<point x="343" y="50" type="line"/>
			<point x="312" y="50" type="line"/>
		</contour>
	</outline>
</glyph>
<glyph name="M.3" format="2">
	<advance width="657"/>
	<outline>
		<contour>
			<point x="51" y="730" type="line"/>
			<point x="110" y="730" type="line"/>
			<point x="190" y="257" type="line"/>
			<point x="201" y="257" type="line"/>
			<point x="191" y="50" type="line"/>
			<point x="170" y="50" type="line"/>
		</contour>
		<contour>
			<point x="201" y="257" type="line"/>
			<point x="239" y="730" type="line"/>
			<point x="280" y="730" type="line"/>
			<point x="246" y="545" type="line"/>
			<point x="201" y="50" type="line"/>
			<point x="170" y="50" type="line"/>
		</contour>
		<contour>
			<point x="237" y="497" type="line"/>
			<point x="280" y="730" type="line"/>
			<point x="340" y="257" type="line"/>
			<point x="351" y="257" type="line"/>
			<point x="343" y="50" type="line"/>
			<point x="312" y="50" type="line"/>
			<point x="250" y="497" type="line"/>
		</contour>
		<contour>
			<point x="351" y="257" type="line"/>
			<point x="389" y="730" type="line"/>
			<point x="430" y="730" type="line"/>
			<point x="396" y="545" type="line"/>
			<point x="351" y="50" type="line"/>
			<point x="320" y="50" type="line"/>
		</contour>
		<contour>
			<point x="387" y="497" type="line"/>
			<point x="430" y="730" type="line"/>
			<point x="490" y="257" type="line"/>
			<point x="501" y="257" type="line"/>
			<point x="493" y="50" type="line"/>
			<point x="462" y="50" type="line"/>
			<point x="400" y="497" type="line"/>
		</contour>
		<contour>
			<point x="501" y="257" type="line"/>
			<point x="561" y="730" type="line"/>
			<point x="585" y="730" type="line"/>
			<point x="493" y="50" type="line"/>
			<point x="462" y="50" type="line"/>
		</contour>
		<contour>
			<point x="35" y="730" type="line"/>
			<point x="105" y="730" type="line"/>
			<point x="100" y="522" type="line"/>
			<point x="77" y="522" type="line"/>
			<point x="104" y="0" type="line"/>
			<point x="25" y="0" type="line"/>
		</contour>
		<contour>
			<point x="542" y="522" type="line"/>
			<point x="561" y="730" type="line"/>
			<point x="622" y="730" type="line"/>
			<point x="632" y="0" type="line"/>
			<point x="555" y="0" type="line"/>
			<point x="568" y="522" type="line"/>
		</contour>
	</outline>
</glyph>
<glyph name="M.4" format="2">
	<advance width="957"/>
	<outline>
		<contour>
			<point x="51" y="730" type="line"/>
			<point x="110" y="730" type="line"/>
			<point x="190" y="257" type="line"/>
			<point x="201" y="257" type="line"/>
			<point x="191" y="50" type="line"/>
			<point x="170" y="50" type="line"/>
		</contour>
		<contour>
			<point x="201" y="257" type="line"/>
			<point x="239" y="730" type="line"/>
			<point x="280" y="730" type="line"/>
			<point x="246" y="545" type="line"/>
			<point x="201" y="50" type="line"/>
			<point x="170" y="50" type="line"/>
		</contour>
		<contour>
			<point x="237" y="497" type="line"/>
			<point x="280" y="730" type="line"/>
			<point x="340" y="257" type="line"/>
			<point x="351" y="257" type="line"/>
			<point x="343" y="50" type="line"/>
			<point x="312" y="50" type="line"/>
			<point x="250" y="497" type="line"/>
		</contour>
		<contour>
			<point x="351" y="257" type="line"/>
			<point x="389" y="730" type="line"/>
			<point x="430" y="730" type="line"/>
			<point x="396" y="545" type="line"/>
			<point x="351" y="50" type="line"/>
			<point x="320" y="50" type="line"/>
		</contour>
		<contour>
			<point x="387" y="497" type="line"/>
			<point x="430" y="730" type="line"/>
			<point x="490" y="257" type="line"/>
			<point x="501" y="257" type="line"/>
			<point x="493" y="50" type="line"/>
			<point x="462" y="50" type="line"/>
			<point x="400" y="497" type="line"/>
		</contour>
		<contour>
			<point x="501" y="257" type="line"/>
			<point x="539" y="730" type="line"/>
			<point x="580" y="730" type="line"/>
			<point x="546" y="545" type="line"/>
			<point x="501" y="50" type="line"/>
			<point x="470" y="50" type="line"/>
		</contour>
		<contour>
			<point x="537" y="497" type="line"/>
			<point x="580" y="730" type="line"/>
			<point x="640" y="257" type="line"/>
			<point x="651" y="257" type="line"/>
			<point x="643" y="50" type="line"/>
			<point x="612" y="50" type="line"/>
			<point x="550" y="497" type="line"/>
		</contour>
		<contour>
			<point x="651" y="257" type="line"/>
			<point x="689" y="730" type="line"/>
			<point x="730" y="730" type="line"/>
			<point x="696" y="545" type="line"/>
			<point x="651" y="50" type="line"/>
			<point x="620" y="50" type="line"/>
		</contour>
		<contour>
			<point x="687" y="497" type="line"/>
			<point x="730" y="730" type="line"/>
			<point x="790" y="257" type="line"/>
			<point x="801" y="257" type="line"/>
			<point x="793" y="50" type="line"/>
			<point x="762" y="50" type="line"/>
			<point x="700" y="497" type="line"/>
		</contour>
		<contour>
			<point x="801" y="257" type="line"/>
			<point x="861" y="730" type="line"/>
			<point x="885" y="730" type="line"/>
			<point x="793" y="50" type="line"/>
			<point x="762" y="50" type="line"/>
		</contour>
		<contour>
			<point x="35" y="730" type="line"/>
			<point x="105" y="730" type="line"/>
			<point x="100" y="522" type="line"/>
			<point x="77" y="522" type="line"/>
			<point x="104" y="0" type="line"/>
			<point x="25" y="0" type="line"/>
		</contour>
		<contour>
			<point x="842" y="522" type="line"/>
			<point x="861" y="730" type="line"/>
			<point x="922" y="730" type="line"/>
			<point x="932" y="0" type="line"/>
			<point x="855" y="0" type="line"/>
			<point x="868" y="522" type="line"/>
		</contour>
	</outline>
</glyph>
<glyph name="N.3" format="2">
	<advance width="518"/>
	<anchor x="141" y="760" name="top"/>
	<outline>
		<contour>
			<point x="69" y="730" type="line"/>
			<point x="96" y="730" type="line"/>
			<point x="212" y="0" type="line"/>
			<point x="184" y="0" type="line"/>
		</contour>
		<contour>
			<point x="25" y="730" type="line"/>
			<point x="85" y="730" type="line"/>
			<point x="93" y="607" type="line"/>
			<point x="76" y="607" type="line"/>
			<point x="90" y="376" type="line"/>
			<point x="96" y="0" type="line"/>
			<point x="25" y="0" type="line"/>
		</contour>
		<contour>
			<point x="204" y="123" type="line"/>
			<point x="161" y="730" type="line"/>
			<point x="204" y="730" type="line"/>
			<point x="212" y="607" type="line"/>
			<point x="195" y="607" type="line"/>
			<point x="237" y="0" type="line"/>
			<point x="195" y="0" type="line"/>
			<point x="187" y="123" type="line"/>
		</contour>
		<contour>
			<point x="188" y="730" type="line"/>
			<point x="215" y="730" type="line"/>
			<point x="331" y="0" type="line"/>
			<point x="303" y="0" type="line"/>
		</contour>
		<contour>
			<point x="323" y="123" type="line"/>
			<point x="280" y="730" type="line"/>
			<point x="323" y="730" type="line"/>
			<point x="331" y="607" type="line"/>
			<point x="314" y="607" type="line"/>
			<point x="356" y="0" type="line"/>
			<point x="314" y="0" type="line"/>
			<point x="306" y="123" type="line"/>
		</contour>
		<contour>
			<point x="307" y="730" type="line"/>
			<point x="334" y="730" type="line"/>
			<point x="450" y="0" type="line"/>
			<point x="422" y="0" type="line"/>
		</contour>
		<contour>
			<point x="493" y="0" type="line"/>
			<point x="433" y="0" type="line"/>
			<point x="425" y="123" type="line"/>
			<point x="442" y="123" type="line"/>
			<point x="438" y="354" type="line"/>
			<point x="421" y="730" type="line"/>
			<point x="493" y="730" type="line"/>
		</contour>
	</outline>
</glyph>
<glyph name="VTF" format="2">
	<advance width="675"/>
	<outline>
		<contour>
			<point x="-5" y="470" type="line"/>
			<point x="71" y="470" type="line"/>
			<point x="104" y="259" type="line"/>
			<point x="126" y="59" type="line"/>
			<point x="137" y="59" type="line"/>
			<point x="131" y="-130" type="line"/>
			<point x="110" y="-130" type="line"/>
		</contour>
		<contour>
			<point x="137" y="59" type="line"/>
			<point x="164" y="470" type="line"/>
			<point x="246" y="470" type="line"/>
			<point x="131" y="-130" type="line"/>
			<point x="110" y="-130" type="line"/>
		</contour>
		<contour>
			<point x="300" y="600" type="line"/>
			<point x="375" y="600" type="line"/>
			<point x="375" y="0" type="line"/>
			<point x="300" y="0" type="line"/>
		</contour>
		<contour>
			<point x="217" y="535" type="line"/>
			<point x="217" y="600" type="line"/>
			<point x="453" y="600" type="line"/>
			<point x="453" y="535" type="line"/>
		</contour>
		<contour>
			<point x="567" y="730" type="line"/>
			<point x="567" y="105" type="line"/>
			<point x="492" y="105" type="line"/>
			<point x="492" y="730" type="line"/>
		</contour>
		<contour>
			<point x="544" y="391" type="line"/>
			<point x="544" y="413" type="line"/>
			<point x="638" y="413" type="line"/>
			<point x="638" y="391" type="line"/>
		</contour>
		<contour>
			<point x="665" y="665" type="line"/>
			<point x="503" y="665" type="line"/>
			<point x="503" y="730" type="line"/>
			<point x="665" y="730" type="line"/>
		</contour>
		<contour>
			<point x="0" y="705" type="line"/>
			<point x="0" y="730" type="line"/>
			<point x="453" y="730" type="line"/>
			<point x="453" y="705" type="line"/>
		</contour>
		<contour>
			<point x="186" y="-130" type="line"/>
			<point x="186" y="-105" type="line"/>
			<point x="664" y="-105" type="line"/>
			<point x="664" y="-130" type="line"/>
		</contour>
		<contour>
			<point x="414" y="0" type="line"/>
			<point x="414" y="25" type="line"/>
			<point x="664" y="25" type="line"/>
			<point x="664" y="0" type="line"/>
		</contour>
		<contour>
			<point x="0" y="575" type="line"/>
			<point x="0" y="600" type="line"/>
			<point x="451" y="600" type="line"/>
			<point x="451" y="575" type="line"/>
		</contour>
	</outline>
</glyph>
<glyph name="caron_vert" format="2">
	<advance width="250"/>
	<anchor x="136" y="640" name="_top"/>
	<outline>
		<contour>
			<point x="212" y="720" type="curve"/>
			<point x="212" y="730" type="line"/>
			<point x="149" y="730" type="line"/>
			<point x="151" y="720" type="line" smooth="yes"/>
			<point x="172" y="615"/>
			<point x="165" y="579"/>
			<point x="144" y="546" type="curve"/>
			<point x="149" y="541" type="line"/>
			<point x="193" y="578"/>
			<point x="212" y="626"/>
		</contour>
	</outline>
</glyph>
<glyph name="f.2" format="2">
	<advance width="199"/>
	<outline>
		<contour>
			<point x="51" y="452" type="line"/>
			<point x="51" y="549" type="line"/>
			<point x="8" y="549" type="line"/>
			<point x="8" y="600" type="line"/>
			<point x="121" y="600" type="line"/>
			<point x="209" y="600" type="line"/>
			<point x="209" y="549" type="line"/>
			<point x="121" y="549" type="line"/>
		</contour>
		<contour>
			<point x="121" y="618" type="curve"/>
			<point x="121" y="0" type="line"/>
			<point x="51" y="0" type="line"/>
			<point x="51" y="510" type="line" smooth="yes"/>
			<point x="51" y="657"/>
			<point x="173" y="740"/>
			<point x="323" y="740" type="curve"/>
			<point x="357" y="740"/>
			<point x="382" y="737"/>
			<point x="405" y="732" type="curve"/>
			<point x="405" y="653" type="line"/>
			<point x="373" y="667"/>
			<point x="326" y="672"/>
			<point x="243" y="672" type="curve"/>
			<point x="146" y="672"/>
			<point x="121" y="658"/>
		</contour>
	</outline>
</glyph>
<glyph name="five.OP" format="2">
	<advance width="246"/>
	<outline>
		<contour>
			<point x="41" y="535" type="line"/>
			<point x="41" y="600" type="line"/>
			<point x="216" y="600" type="line"/>
			<point x="216" y="535" type="line"/>
		</contour>
		<contour>
			<point x="214" y="307" type="curve"/>
			<point x="214" y="6" type="line" smooth="yes"/>
			<point x="214" y="-92"/>
			<point x="176" y="-130"/>
			<point x="117" y="-130" type="curve"/>
			<point x="52" y="-130"/>
			<point x="26" y="-58"/>
			<point x="28" y="37" type="curve"/>
			<point x="31" y="158" type="line"/>
			<point x="45" y="158" type="line"/>
			<point x="48" y="40" type="line" smooth="yes"/>
			<point x="50" y="-24"/>
			<point x="58" y="-62"/>
			<point x="101" y="-62" type="curve"/>
			<point x="127" y="-62"/>
			<point x="144" y="-44"/>
			<point x="144" y="31" type="curve"/>
			<point x="144" y="268" type="line" smooth="yes"/>
			<point x="144" y="304"/>
			<point x="139" y="320"/>
			<point x="120" y="320" type="curve"/>
			<point x="88" y="320"/>
			<point x="63" y="265"/>
			<point x="45" y="188" type="curve"/>
			<point x="30" y="188" type="line"/>
			<point x="30" y="600" type="line"/>
			<point x="100" y="600" type="line"/>
			<point x="100" y="387" type="line"/>
			<point x="65" y="309" type="line"/>
			<point x="73" y="304" type="line"/>
			<point x="106" y="369"/>
			<point x="129" y="388"/>
			<point x="162" y="388" type="curve"/>
			<point x="189" y="388"/>
			<point x="214" y="357"/>
		</contour>
	</outline>
</glyph>
<glyph name="j.2" format="2">
	<advance width="140"/>
	<outline>
		<contour>
			<point x="17" y="730" type="line"/>
			<point x="17" y="679" type="line"/>
			<point x="123" y="679" type="line"/>
			<point x="123" y="730" type="line"/>
		</contour>
		<contour>
			<point x="35" y="-18" type="curve"/>
			<point x="35" y="600" type="line"/>
			<point x="105" y="600" type="line"/>
			<point x="105" y="90" type="line" smooth="yes"/>
			<point x="105" y="-57"/>
			<point x="-17" y="-140"/>
			<point x="-167" y="-140" type="curve"/>
			<point x="-201" y="-140"/>
			<point x="-226" y="-137"/>
			<point x="-249" y="-132" type="curve"/>
			<point x="-249" y="-53" type="line"/>
			<point x="-217" y="-67"/>
			<point x="-170" y="-72"/>
			<point x="-87" y="-72" type="curve"/>
			<point x="10" y="-72"/>
			<point x="35" y="-58"/>
		</contour>
	</outline>
</glyph>
<glyph name="m.2" format="2">
	<advance width="363"/>
	<outline>
		<contour>
			<point x="45" y="600" type="line"/>
			<point x="102" y="600" type="line"/>
			<point x="102" y="392" type="line"/>
			<point x="79" y="392" type="line"/>
			<point x="106" y="0" type="line"/>
			<point x="35" y="0" type="line"/>
		</contour>
		<contour>
			<point x="53" y="600" type="line"/>
			<point x="107" y="600" type="line"/>
			<point x="186" y="173" type="line"/>
			<point x="197" y="173" type="line"/>
			<point x="190" y="0" type="line"/>
			<point x="168" y="0" type="line"/>
		</contour>
		<contour>
			<point x="197" y="173" type="line"/>
			<point x="264" y="600" type="line"/>
			<point x="286" y="600" type="line"/>
			<point x="190" y="0" type="line"/>
			<point x="168" y="0" type="line"/>
		</contour>
		<contour>
			<point x="243" y="392" type="line"/>
			<point x="265" y="600" type="line"/>
			<point x="318" y="600" type="line"/>
			<point x="328" y="0" type="line"/>
			<point x="256" y="0" type="line"/>
			<point x="269" y="392" type="line"/>
		</contour>
	</outline>
</glyph>
<glyph name="m.4" format="2">
	<advance width="657"/>
	<outline>
		<contour>
			<point x="35" y="600" type="line"/>
			<point x="105" y="600" type="line"/>
			<point x="100" y="392" type="line"/>
			<point x="77" y="392" type="line"/>
			<point x="104" y="0" type="line"/>
			<point x="25" y="0" type="line"/>
		</contour>
		<contour>
			<point x="51" y="600" type="line"/>
			<point x="110" y="600" type="line"/>
			<point x="190" y="207" type="line"/>
			<point x="201" y="207" type="line"/>
			<point x="191" y="0" type="line"/>
			<point x="170" y="0" type="line"/>
		</contour>
		<contour>
			<point x="201" y="207" type="line"/>
			<point x="239" y="600" type="line"/>
			<point x="280" y="600" type="line"/>
			<point x="246" y="415" type="line"/>
			<point x="201" y="0" type="line"/>
			<point x="170" y="0" type="line"/>
		</contour>
		<contour>
			<point x="237" y="367" type="line"/>
			<point x="280" y="600" type="line"/>
			<point x="340" y="207" type="line"/>
			<point x="351" y="207" type="line"/>
			<point x="343" y="0" type="line"/>
			<point x="312" y="0" type="line"/>
			<point x="250" y="367" type="line"/>
		</contour>
		<contour>
			<point x="542" y="392" type="line"/>
			<point x="561" y="600" type="line"/>
			<point x="622" y="600" type="line"/>
			<point x="632" y="0" type="line"/>
			<point x="555" y="0" type="line"/>
			<point x="568" y="392" type="line"/>
		</contour>
		<contour>
			<point x="351" y="207" type="line"/>
			<point x="389" y="600" type="line"/>
			<point x="430" y="600" type="line"/>
			<point x="396" y="415" type="line"/>
			<point x="351" y="0" type="line"/>
			<point x="320" y="0" type="line"/>
		</contour>
		<contour>
			<point x="387" y="367" type="line"/>
			<point x="430" y="600" type="line"/>
			<point x="490" y="207" type="line"/>
			<point x="501" y="207" type="line"/>
			<point x="493" y="0" type="line"/>
			<point x="462" y="0" type="line"/>
			<point x="400" y="367" type="line"/>
		</contour>
		<contour>
			<point x="501" y="207" type="line"/>
			<point x="561" y="600" type="line"/>
			<point x="585" y="600" type="line"/>
			<point x="493" y="0" type="line"/>
			<point x="462" y="0" type="line"/>
		</contour>
	</outline>
</glyph>
<glyph name="n.2" format="2">
	<advance width="280"/>
	<outline>
		<contour>
			<point x="69" y="600" type="line"/>
			<point x="96" y="600" type="line"/>
			<point x="212" y="0" type="line"/>
			<point x="184" y="0" type="line"/>
		</contour>
		<contour>
			<point x="25" y="600" type="line"/>
			<point x="85" y="600" type="line"/>
			<point x="93" y="477" type="line"/>
			<point x="76" y="477" type="line"/>
			<point x="90" y="246" type="line"/>
			<point x="96" y="0" type="line"/>
			<point x="25" y="0" type="line"/>
		</contour>
		<contour>
			<point x="255" y="0" type="line"/>
			<point x="195" y="0" type="line"/>
			<point x="187" y="123" type="line"/>
			<point x="204" y="123" type="line"/>
			<point x="190" y="354" type="line"/>
			<point x="183" y="600" type="line"/>
			<point x="255" y="600" type="line"/>
		</contour>
	</outline>
</glyph>
<glyph name="n.4" format="2">
	<advance width="536"/>
	<outline>
		<contour>
			<point x="69" y="600" type="line"/>
			<point x="96" y="600" type="line"/>
			<point x="212" y="0" type="line"/>
			<point x="184" y="0" type="line"/>
		</contour>
		<contour>
			<point x="25" y="600" type="line"/>
			<point x="85" y="600" type="line"/>
			<point x="93" y="477" type="line"/>
			<point x="76" y="477" type="line"/>
			<point x="90" y="246" type="line"/>
			<point x="96" y="0" type="line"/>
			<point x="25" y="0" type="line"/>
		</contour>
		<contour>
			<point x="197" y="600" type="line"/>
			<point x="224" y="600" type="line"/>
			<point x="340" y="0" type="line"/>
			<point x="312" y="0" type="line"/>
		</contour>
		<contour>
			<point x="204" y="123" type="line"/>
			<point x="170" y="600" type="line"/>
			<point x="213" y="600" type="line"/>
			<point x="221" y="477" type="line"/>
			<point x="204" y="477" type="line"/>
			<point x="237" y="0" type="line"/>
			<point x="195" y="0" type="line"/>
			<point x="187" y="123" type="line"/>
		</contour>
		<contour>
			<point x="325" y="600" type="line"/>
			<point x="352" y="600" type="line"/>
			<point x="468" y="0" type="line"/>
			<point x="440" y="0" type="line"/>
		</contour>
		<contour>
			<point x="511" y="0" type="line"/>
			<point x="451" y="0" type="line"/>
			<point x="443" y="123" type="line"/>
			<point x="460" y="123" type="line"/>
			<point x="446" y="354" type="line"/>
			<point x="439" y="600" type="line"/>
			<point x="511" y="600" type="line"/>
		</contour>
		<contour>
			<point x="332" y="123" type="line"/>
			<point x="298" y="600" type="line"/>
			<point x="341" y="600" type="line"/>
			<point x="349" y="477" type="line"/>
			<point x="332" y="477" type="line"/>
			<point x="365" y="0" type="line"/>
			<point x="323" y="0" type="line"/>
			<point x="315" y="123" type="line"/>
		</contour>
	</outline>
</glyph>
<glyph name="pointer" format="2">
	<advance width="354"/>
	<outline>
		<contour>
			<point x="179" y="354" type="line"/>
			<point x="49" y="33" type="line"/>
			<point x="125" y="9" type="line"/>
			<point x="205" y="345" type="line"/>
			<point x="212" y="347" type="line"/>
			<point x="270" y="193" type="line"/>
			<point x="277" y="195" type="line"/>
			<point x="316" y="718" type="line"/>
			<point x="305" y="722" type="line"/>
			<point x="33" y="273" type="line"/>
			<point x="38" y="268" type="line"/>
			<point x="174" y="359" type="line"/>
		</contour>
	</outline>
</glyph>
<glyph name="s.2" format="2">
	<advance width="237"/>
	<anchor x="125" y="640" name="top"/>
	<anchor x="111" y="0" name="bottom"/>
	<outline>
		<contour>
			<point x="8" y="487" type="curve" smooth="yes"/>
			<point x="8" y="573"/>
			<point x="61" y="610"/>
			<point x="124" y="610" type="curve"/>
			<point x="186" y="610"/>
			<point x="216" y="579"/>
			<point x="216" y="517" type="curve"/>
			<point x="216" y="464"/>
			<point x="212" y="405"/>
			<point x="205" y="360" type="curve"/>
			<point x="133" y="360" type="line"/>
			<point x="185" y="461"/>
			<point x="197" y="494"/>
			<point x="197" y="516" type="curve"/>
			<point x="197" y="534"/>
			<point x="177" y="542"/>
			<point x="124" y="542" type="curve"/>
			<point x="87" y="542"/>
			<point x="78" y="522"/>
			<point x="78" y="496" type="curve"/>
			<point x="78" y="397"/>
			<point x="213" y="222"/>
			<point x="213" y="114" type="curve"/>
			<point x="213" y="25"/>
			<point x="164" y="-10"/>
			<point x="107" y="-10" type="curve"/>
			<point x="58" y="-10"/>
			<point x="35" y="20"/>
			<point x="35" y="82" type="curve"/>
			<point x="35" y="117"/>
			<point x="37" y="155"/>
			<point x="45" y="201" type="curve"/>
			<point x="109" y="201" type="line"/>
			<point x="69" y="123"/>
			<point x="54" y="100"/>
			<point x="54" y="83" type="curve"/>
			<point x="54" y="65"/>
			<point x="69" y="58"/>
			<point x="107" y="58" type="curve"/>
			<point x="138" y="58"/>
			<point x="145" y="76"/>
			<point x="145" y="102" type="curve"/>
			<point x="145" y="187"/>
			<point x="8" y="400"/>
		</contour>
	</outline>
</glyph>
<glyph name="scedilla.2" format="2">
	<advance width="238"/>
	<anchor x="125" y="640" name="top"/>
	<anchor x="111" y="0" name="bottom"/>
	<outline>
		<contour>
			<point x="88" y="-130" type="curve" smooth="yes"/>
			<point x="72" y="-130"/>
			<point x="57" y="-128"/>
			<point x="45" y="-124" type="curve"/>
			<point x="48" y="-49" type="line"/>
			<point x="64" y="-61"/>
			<point x="97" y="-72"/>
			<point x="108" y="-72" type="curve"/>
			<point x="116" y="-72"/>
			<point x="121" y="-69"/>
			<point x="121" y="-61" type="curve"/>
			<point x="121" y="-46"/>
			<point x="111" y="-23"/>
			<point x="96" y="3" type="curve"/>
			<point x="110" y="3" type="line"/>
			<point x="131" y="-27"/>
			<point x="145" y="-52"/>
			<point x="145" y="-76" type="curve"/>
			<point x="145" y="-110"/>
			<point x="117" y="-130"/>
		</contour>
		<component base="s.2"/>
	</outline>
</glyph>
<glyph name="seven.OP" format="2">
	<advance width="217"/>
	<anchor x="113" y="760" name="top"/>
	<outline>
		<contour>
			<point x="130" y="567" type="line"/>
			<point x="207" y="600" type="line"/>
			<point x="91" y="-130" type="line"/>
			<point x="23" y="-130" type="line"/>
			<point x="138" y="556" type="line"/>
		</contour>
		<contour>
			<point x="20" y="520" type="line"/>
			<point x="20" y="600" type="line"/>
			<point x="207" y="600" type="line"/>
			<point x="130" y="567" type="line"/>
		</contour>
	</outline>
</glyph>
<glyph name="six.OP" format="2">
	<advance width="271"/>
	<anchor x="113" y="0" name="bottom"/>
	<outline>
		<contour>
			<point x="100" y="182" type="curve"/>
			<point x="100" y="141" type="line"/>
			<point x="100" y="69"/>
			<point x="120" y="58"/>
			<point x="144" y="58" type="curve"/>
			<point x="170" y="58"/>
			<point x="176" y="80"/>
			<point x="176" y="115" type="curve"/>
			<point x="176" y="293" type="line" smooth="yes"/>
			<point x="176" y="329"/>
			<point x="166" y="345"/>
			<point x="146" y="345" type="curve"/>
			<point x="124" y="345"/>
			<point x="100" y="276"/>
		</contour>
		<contour>
			<point x="100" y="615" type="curve"/>
			<point x="100" y="389" type="line"/>
			<point x="77" y="237" type="line"/>
			<point x="87" y="235" type="line"/>
			<point x="108" y="385"/>
			<point x="142" y="410"/>
			<point x="180" y="410" type="curve"/>
			<point x="218" y="410"/>
			<point x="246" y="379"/>
			<point x="246" y="329" type="curve"/>
			<point x="246" y="125" type="line" smooth="yes"/>
			<point x="246" y="27"/>
			<point x="194" y="-10"/>
			<point x="132" y="-10" type="curve"/>
			<point x="66" y="-10"/>
			<point x="30" y="21"/>
			<point x="30" y="107" type="curve"/>
			<point x="30" y="605" type="line" smooth="yes"/>
			<point x="30" y="703"/>
			<point x="77" y="740"/>
			<point x="132" y="740" type="curve"/>
			<point x="184" y="740"/>
			<point x="209" y="709"/>
			<point x="209" y="647" type="curve"/>
			<point x="209" y="596"/>
			<point x="207" y="526"/>
			<point x="189" y="425" type="curve"/>
			<point x="113" y="425" type="line"/>
			<point x="183" y="575"/>
			<point x="190" y="614"/>
			<point x="190" y="642" type="curve"/>
			<point x="190" y="666"/>
			<point x="174" y="675"/>
			<point x="132" y="675" type="curve"/>
			<point x="106" y="675"/>
			<point x="100" y="652"/>
		</contour>
	</outline>
</glyph>
<glyph name="squareuplefttolowrightfill" format="2">
	<advance width="619"/>
	<anchor x="122" y="760" name="top"/>
	<outline>
		<contour>
			<point x="0" y="730" type="line"/>
			<point x="27" y="730" type="line"/>
			<point x="143" y="0" type="line"/>
			<point x="115" y="0" type="line"/>
		</contour>
		<contour>
			<point x="135" y="123" type="line"/>
			<point x="92" y="730" type="line"/>
			<point x="135" y="730" type="line"/>
			<point x="143" y="607" type="line"/>
			<point x="126" y="607" type="line"/>
			<point x="168" y="0" type="line"/>
			<point x="126" y="0" type="line"/>
			<point x="118" y="123" type="line"/>
		</contour>
		<contour>
			<point x="119" y="730" type="line"/>
			<point x="146" y="730" type="line"/>
			<point x="262" y="0" type="line"/>
			<point x="234" y="0" type="line"/>
		</contour>
		<contour>
			<point x="254" y="123" type="line"/>
			<point x="211" y="730" type="line"/>
			<point x="254" y="730" type="line"/>
			<point x="262" y="607" type="line"/>
			<point x="245" y="607" type="line"/>
			<point x="287" y="0" type="line"/>
			<point x="245" y="0" type="line"/>
			<point x="237" y="123" type="line"/>
		</contour>
		<contour>
			<point x="238" y="730" type="line"/>
			<point x="265" y="730" type="line"/>
			<point x="381" y="0" type="line"/>
			<point x="353" y="0" type="line"/>
		</contour>
		<contour>
			<point x="373" y="123" type="line"/>
			<point x="330" y="730" type="line"/>
			<point x="373" y="730" type="line"/>
			<point x="381" y="607" type="line"/>
			<point x="364" y="607" type="line"/>
			<point x="406" y="0" type="line"/>
			<point x="364" y="0" type="line"/>
			<point x="356" y="123" type="line"/>
		</contour>
		<contour>
			<point x="357" y="730" type="line"/>
			<point x="384" y="730" type="line"/>
			<point x="500" y="0" type="line"/>
			<point x="472" y="0" type="line"/>
		</contour>
		<contour>
			<point x="492" y="123" type="line"/>
			<point x="449" y="730" type="line"/>
			<point x="492" y="730" type="line"/>
			<point x="500" y="607" type="line"/>
			<point x="483" y="607" type="line"/>
			<point x="525" y="0" type="line"/>
			<point x="483" y="0" type="line"/>
			<point x="475" y="123" type="line"/>
		</contour>
		<contour>
			<point x="476" y="730" type="line"/>
			<point x="503" y="730" type="line"/>
			<point x="619" y="0" type="line"/>
			<point x="591" y="0" type="line"/>
		</contour>
	</outline>
</glyph>
<glyph name="three.OP" format="2">
	<advance width="253"/>
	<outline>
		<contour>
			<point x="110" y="-62" type="curve" smooth="yes"/>
			<point x="67" y="-62"/>
			<point x="59" y="-24"/>
			<point x="57" y="40" type="curve"/>
			<point x="54" y="158" type="line"/>
			<point x="40" y="158" type="line"/>
			<point x="37" y="37" type="line" smooth="yes"/>
			<point x="35" y="-58"/>
			<point x="61" y="-130"/>
			<point x="114" y="-130" type="curve"/>
			<point x="185" y="-130"/>
			<point x="223" y="-92"/>
			<point x="223" y="6" type="curve"/>
			<point x="223" y="95" type="line" smooth="yes"/>
			<point x="223" y="162"/>
			<point x="214" y="224"/>
			<point x="186" y="244" type="curve"/>
			<point x="142" y="238" type="line"/>
			<point x="141" y="246" type="line"/>
			<point x="191" y="255"/>
			<point x="216" y="292"/>
			<point x="216" y="385" type="curve"/>
			<point x="216" y="474" type="line" smooth="yes"/>
			<point x="216" y="581"/>
			<point x="189" y="610"/>
			<point x="132" y="610" type="curve"/>
			<point x="66" y="610"/>
			<point x="15" y="538"/>
			<point x="15" y="475" type="curve"/>
			<point x="15" y="431"/>
			<point x="22" y="376"/>
			<point x="41" y="330" type="curve"/>
			<point x="137" y="330" type="line"/>
			<point x="58" y="410"/>
			<point x="40" y="446"/>
			<point x="40" y="486" type="curve"/>
			<point x="40" y="520"/>
			<point x="54" y="542"/>
			<point x="108" y="542" type="curve"/>
			<point x="139" y="542"/>
			<point x="146" y="525"/>
			<point x="146" y="449" type="curve"/>
			<point x="146" y="325" type="line" smooth="yes"/>
			<point x="146" y="276"/>
			<point x="132" y="250"/>
			<point x="99" y="250" type="curve"/>
			<point x="51" y="250" type="line"/>
			<point x="51" y="230" type="line"/>
			<point x="99" y="230" type="line" smooth="yes"/>
			<point x="137" y="230"/>
			<point x="153" y="206"/>
			<point x="153" y="155" type="curve"/>
			<point x="153" y="31" type="line" smooth="yes"/>
			<point x="153" y="-44"/>
			<point x="136" y="-62"/>
		</contour>
	</outline>
</glyph>
<glyph name="tonos.cap" format="2">
	<advance width="148"/>
	<note>
		Wed Jul 24 17:37:45 2019
	</note>
	<outline>
		<contour>
			<point x="105" y="707" type="curve" smooth="yes"/>
			<point x="107" y="730" type="line"/>
			<point x="43" y="730" type="line"/>
			<point x="46" y="697" type="line" smooth="yes"/>
			<point x="49" y="659"/>
			<point x="47.645" y="628.766"/>
			<point x="40" y="596" type="curve"/>
			<point x="47" y="593" type="line"/>
			<point x="84.355" y="629.372"/>
			<point x="100.915" y="660.019"/>
		</contour>
	</outline>
</glyph>
<glyph name="two.OP" format="2">
	<advance width="261"/>
	<outline>
		<contour>
			<point x="115" y="20" type="line"/>
			<point x="16" y="0" type="line"/>
			<point x="127" y="211"/>
			<point x="156" y="315"/>
			<point x="156" y="424" type="curve"/>
			<point x="156" y="444"/>
			<point x="156" y="466"/>
			<point x="156" y="490" type="curve"/>
			<point x="156" y="534"/>
			<point x="147" y="542"/>
			<point x="110" y="542" type="curve"/>
			<point x="68" y="542"/>
			<point x="57" y="520"/>
			<point x="57" y="486" type="curve"/>
			<point x="57" y="441"/>
			<point x="75" y="391"/>
			<point x="134" y="310" type="curve"/>
			<point x="48" y="310" type="line"/>
			<point x="37" y="361"/>
			<point x="32" y="425"/>
			<point x="32" y="475" type="curve"/>
			<point x="32" y="538"/>
			<point x="76" y="610"/>
			<point x="134" y="610" type="curve"/>
			<point x="195" y="610"/>
			<point x="226" y="579"/>
			<point x="226" y="495" type="curve"/>
			<point x="226" y="475"/>
			<point x="226" y="457"/>
			<point x="226" y="440" type="curve"/>
			<point x="226" y="369"/>
			<point x="196" y="226"/>
			<point x="101" y="40" type="curve"/>
		</contour>
		<contour>
			<point x="16" y="0" type="line"/>
			<point x="55" y="65" type="line"/>
			<point x="86" y="25" type="line"/>
			<point x="241" y="80" type="line"/>
			<point x="241" y="0" type="line"/>
		</contour>
	</outline>
</glyph>
<glyph name="uni0416.2" format="2">
	<advance width="395"/>
	<outline>
		<contour>
			<point x="160" y="214" type="curve"/>
			<point x="160" y="0" type="line"/>
			<point x="235" y="0" type="line"/>
			<point x="235" y="214" type="line" smooth="yes"/>
			<point x="235" y="247"/>
			<point x="248" y="325"/>
			<point x="268" y="412" type="curve"/>
			<point x="302" y="563"/>
			<point x="330" y="648"/>
			<point x="382" y="660" type="curve"/>
			<point x="395" y="663" type="line"/>
			<point x="395" y="730" type="line"/>
			<point x="305" y="730" type="line"/>
			<point x="221" y="295" type="line"/>
			<point x="211" y="297" type="line"/>
			<point x="235" y="649" type="line"/>
			<point x="235" y="730" type="line"/>
			<point x="160" y="730" type="line"/>
			<point x="160" y="649" type="line"/>
			<point x="184" y="297" type="line"/>
			<point x="174" y="295" type="line"/>
			<point x="90" y="730" type="line"/>
			<point x="0" y="730" type="line"/>
			<point x="0" y="663" type="line"/>
			<point x="13" y="660" type="line" smooth="yes"/>
			<point x="65" y="648"/>
			<point x="93" y="563"/>
			<point x="127" y="412" type="curve"/>
			<point x="146" y="326"/>
			<point x="160" y="247"/>
		</contour>
		<contour>
			<point x="49" y="292" type="line"/>
			<point x="12" y="0" type="line"/>
			<point x="93" y="0" type="line"/>
			<point x="103" y="174" type="line"/>
			<point x="107" y="248"/>
			<point x="120" y="265"/>
			<point x="162" y="258" type="curve"/>
			<point x="159" y="290" type="line"/>
			<point x="147" y="279" type="line"/>
		</contour>
		<contour>
			<point x="292" y="174" type="curve"/>
			<point x="302" y="0" type="line"/>
			<point x="383" y="0" type="line"/>
			<point x="346" y="292" type="line"/>
			<point x="248" y="279" type="line"/>
			<point x="236" y="290" type="line"/>
			<point x="233" y="258" type="line"/>
			<point x="275" y="265"/>
			<point x="288" y="248"/>
		</contour>
	</outline>
</glyph>
<glyph name="uni0416.3" format="2">
	<advance width="441"/>
	<outline>
		<contour>
			<point x="183" y="214" type="curve"/>
			<point x="183" y="0" type="line"/>
			<point x="258" y="0" type="line"/>
			<point x="258" y="214" type="line" smooth="yes"/>
			<point x="258" y="278"/>
			<point x="273" y="327"/>
			<point x="294" y="415" type="curve"/>
			<point x="330" y="564"/>
			<point x="344" y="647"/>
			<point x="396" y="657" type="curve"/>
			<point x="428" y="663" type="line"/>
			<point x="428" y="730" type="line"/>
			<point x="328" y="730" type="line"/>
			<point x="244" y="295" type="line"/>
			<point x="234" y="297" type="line"/>
			<point x="258" y="649" type="line"/>
			<point x="258" y="730" type="line"/>
			<point x="183" y="730" type="line"/>
			<point x="183" y="649" type="line"/>
			<point x="207" y="297" type="line"/>
			<point x="197" y="295" type="line"/>
			<point x="113" y="730" type="line"/>
			<point x="13" y="730" type="line"/>
			<point x="13" y="663" type="line"/>
			<point x="45" y="657" type="line" smooth="yes"/>
			<point x="97" y="647"/>
			<point x="111" y="564"/>
			<point x="147" y="415" type="curve"/>
			<point x="168" y="327"/>
			<point x="183" y="278"/>
		</contour>
		<contour>
			<point x="57" y="292" type="line"/>
			<point x="10" y="0" type="line"/>
			<point x="91" y="0" type="line"/>
			<point x="111" y="174" type="line" smooth="yes"/>
			<point x="120" y="248"/>
			<point x="140" y="265"/>
			<point x="185" y="258" type="curve"/>
			<point x="182" y="290" type="line"/>
			<point x="170" y="279" type="line"/>
		</contour>
		<contour>
			<point x="330" y="174" type="curve"/>
			<point x="350" y="0" type="line"/>
			<point x="431" y="0" type="line"/>
			<point x="384" y="292" type="line"/>
			<point x="271" y="279" type="line"/>
			<point x="259" y="290" type="line"/>
			<point x="256" y="258" type="line"/>
			<point x="301" y="265"/>
			<point x="321" y="248"/>
		</contour>
		<contour>
			<point x="130" y="279" type="line"/>
			<point x="188" y="276" type="line"/>
			<point x="184" y="293" type="line"/>
			<point x="166" y="287" type="line"/>
			<point x="95" y="506" type="line"/>
			<point x="13" y="506" type="line"/>
			<point x="13" y="454" type="line"/>
			<point x="35" y="448" type="line" smooth="yes"/>
			<point x="81" y="435"/>
			<point x="94" y="417"/>
			<point x="119" y="357" type="curve"/>
			<point x="133" y="323"/>
			<point x="140" y="304"/>
			<point x="144" y="287" type="curve"/>
		</contour>
		<contour>
			<point x="257" y="293" type="line"/>
			<point x="253" y="276" type="line"/>
			<point x="311" y="279" type="line"/>
			<point x="297" y="287" type="line"/>
			<point x="301" y="304"/>
			<point x="308" y="323"/>
			<point x="322" y="357" type="curve"/>
			<point x="347" y="417"/>
			<point x="360" y="435"/>
			<point x="406" y="448" type="curve"/>
			<point x="428" y="454" type="line"/>
			<point x="428" y="506" type="line"/>
			<point x="346" y="506" type="line"/>
			<point x="275" y="287" type="line"/>
		</contour>
	</outline>
</glyph>
<glyph name="uni04180419" format="2">
	<advance width="529"/>
	<anchor x="278" y="730" name="top"/>
	<outline>
		<contour>
			<point x="311" y="0" type="line"/>
			<point x="427" y="730" type="line"/>
			<point x="454" y="730" type="line"/>
			<point x="339" y="0" type="line"/>
		</contour>
		<contour>
			<point x="430" y="607" type="line"/>
			<point x="438" y="730" type="line"/>
			<point x="498" y="730" type="line"/>
			<point x="498" y="0" type="line"/>
			<point x="427" y="0" type="line"/>
			<point x="433" y="376" type="line"/>
			<point x="447" y="607" type="line"/>
		</contour>
		<contour>
			<point x="319" y="730" type="line"/>
			<point x="362" y="730" type="line"/>
			<point x="319" y="123" type="line"/>
			<point x="336" y="123" type="line"/>
			<point x="328" y="0" type="line"/>
			<point x="286" y="0" type="line"/>
			<point x="328" y="607" type="line"/>
			<point x="311" y="607" type="line"/>
		</contour>
		<contour>
			<point x="192" y="0" type="line"/>
			<point x="308" y="730" type="line"/>
			<point x="335" y="730" type="line"/>
			<point x="220" y="0" type="line"/>
		</contour>
		<contour>
			<point x="200" y="730" type="line"/>
			<point x="243" y="730" type="line"/>
			<point x="200" y="123" type="line"/>
			<point x="217" y="123" type="line"/>
			<point x="209" y="0" type="line"/>
			<point x="167" y="0" type="line"/>
			<point x="209" y="607" type="line"/>
			<point x="192" y="607" type="line"/>
		</contour>
		<contour>
			<point x="73" y="0" type="line"/>
			<point x="189" y="730" type="line"/>
			<point x="216" y="730" type="line"/>
			<point x="101" y="0" type="line"/>
		</contour>
		<contour>
			<point x="98" y="123" type="line"/>
			<point x="90" y="0" type="line"/>
			<point x="30" y="0" type="line"/>
			<point x="30" y="730" type="line"/>
			<point x="102" y="730" type="line"/>
			<point x="85" y="354" type="line"/>
			<point x="81" y="123" type="line"/>
		</contour>
		<contour>
			<point x="499" y="850" type="line"/>
			<point x="429" y="850" type="line"/>
			<point x="431" y="840" type="line" smooth="yes"/>
			<point x="440" y="795"/>
			<point x="431" y="770"/>
			<point x="399" y="770" type="curve"/>
			<point x="367" y="770"/>
			<point x="358" y="795"/>
			<point x="367" y="840" type="curve"/>
			<point x="369" y="850" type="line"/>
			<point x="299" y="850" type="line"/>
			<point x="299" y="840" type="line" smooth="yes"/>
			<point x="299" y="787"/>
			<point x="335" y="757"/>
			<point x="399" y="756" type="curve"/>
			<point x="463" y="755"/>
			<point x="499" y="785"/>
			<point x="499" y="840" type="curve"/>
		</contour>
	</outline>
</glyph>
<glyph name="uni0419.2" format="2">
	<advance width="399"/>
	<anchor x="206" y="760" name="top"/>
	<outline>
		<contour>
			<point x="187" y="0" type="line"/>
			<point x="303" y="730" type="line"/>
			<point x="330" y="730" type="line"/>
			<point x="215" y="0" type="line"/>
		</contour>
		<contour>
			<point x="306" y="607" type="line"/>
			<point x="314" y="730" type="line"/>
			<point x="374" y="730" type="line"/>
			<point x="374" y="0" type="line"/>
			<point x="303" y="0" type="line"/>
			<point x="309" y="376" type="line"/>
			<point x="323" y="607" type="line"/>
		</contour>
		<contour>
			<point x="195" y="730" type="line"/>
			<point x="238" y="730" type="line"/>
			<point x="195" y="123" type="line"/>
			<point x="212" y="123" type="line"/>
			<point x="204" y="0" type="line"/>
			<point x="162" y="0" type="line"/>
			<point x="204" y="607" type="line"/>
			<point x="187" y="607" type="line"/>
		</contour>
		<contour>
			<point x="68" y="0" type="line"/>
			<point x="184" y="730" type="line"/>
			<point x="211" y="730" type="line"/>
			<point x="96" y="0" type="line"/>
		</contour>
		<contour>
			<point x="93" y="123" type="line"/>
			<point x="85" y="0" type="line"/>
			<point x="25" y="0" type="line"/>
			<point x="25" y="730" type="line"/>
			<point x="97" y="730" type="line"/>
			<point x="80" y="354" type="line"/>
			<point x="76" y="123" type="line"/>
		</contour>
		<contour>
			<point x="327" y="850" type="line"/>
			<point x="255" y="850" type="line"/>
			<point x="257" y="840" type="line" smooth="yes"/>
			<point x="266" y="796"/>
			<point x="250" y="773"/>
			<point x="207" y="773" type="curve"/>
			<point x="164" y="773"/>
			<point x="148" y="796"/>
			<point x="157" y="840" type="curve"/>
			<point x="159" y="850" type="line"/>
			<point x="87" y="850" type="line"/>
			<point x="87" y="840" type="line" smooth="yes"/>
			<point x="87" y="791"/>
			<point x="135" y="757"/>
			<point x="207" y="756" type="curve"/>
			<point x="279" y="755"/>
			<point x="327" y="789"/>
			<point x="327" y="840" type="curve"/>
		</contour>
	</outline>
</glyph>
<glyph name="uni0419.3" format="2">
	<advance width="518"/>
	<outline>
		<contour>
			<point x="306" y="0" type="line"/>
			<point x="422" y="730" type="line"/>
			<point x="449" y="730" type="line"/>
			<point x="334" y="0" type="line"/>
		</contour>
		<contour>
			<point x="425" y="607" type="line"/>
			<point x="433" y="730" type="line"/>
			<point x="493" y="730" type="line"/>
			<point x="493" y="0" type="line"/>
			<point x="422" y="0" type="line"/>
			<point x="428" y="376" type="line"/>
			<point x="442" y="607" type="line"/>
		</contour>
		<contour>
			<point x="314" y="730" type="line"/>
			<point x="357" y="730" type="line"/>
			<point x="314" y="123" type="line"/>
			<point x="331" y="123" type="line"/>
			<point x="323" y="0" type="line"/>
			<point x="281" y="0" type="line"/>
			<point x="323" y="607" type="line"/>
			<point x="306" y="607" type="line"/>
		</contour>
		<contour>
			<point x="187" y="0" type="line"/>
			<point x="303" y="730" type="line"/>
			<point x="330" y="730" type="line"/>
			<point x="215" y="0" type="line"/>
		</contour>
		<contour>
			<point x="195" y="730" type="line"/>
			<point x="238" y="730" type="line"/>
			<point x="195" y="123" type="line"/>
			<point x="212" y="123" type="line"/>
			<point x="204" y="0" type="line"/>
			<point x="162" y="0" type="line"/>
			<point x="204" y="607" type="line"/>
			<point x="187" y="607" type="line"/>
		</contour>
		<contour>
			<point x="68" y="0" type="line"/>
			<point x="184" y="730" type="line"/>
			<point x="211" y="730" type="line"/>
			<point x="96" y="0" type="line"/>
		</contour>
		<contour>
			<point x="93" y="123" type="line"/>
			<point x="85" y="0" type="line"/>
			<point x="25" y="0" type="line"/>
			<point x="25" y="730" type="line"/>
			<point x="97" y="730" type="line"/>
			<point x="80" y="354" type="line"/>
			<point x="76" y="123" type="line"/>
		</contour>
		<contour>
			<point x="399" y="850" type="line"/>
			<point x="324" y="850" type="line"/>
			<point x="326" y="840" type="line" smooth="yes"/>
			<point x="333" y="805"/>
			<point x="323" y="775"/>
			<point x="259" y="774" type="curve"/>
			<point x="195" y="773"/>
			<point x="185" y="805"/>
			<point x="192" y="840" type="curve"/>
			<point x="194" y="850" type="line"/>
			<point x="119" y="850" type="line"/>
			<point x="119" y="840" type="line" smooth="yes"/>
			<point x="119" y="784"/>
			<point x="150" y="757"/>
			<point x="259" y="756" type="curve"/>
			<point x="368" y="755"/>
			<point x="399" y="784"/>
			<point x="399" y="840" type="curve"/>
		</contour>
	</outline>
</glyph>
<glyph name="uni0429.2" format="2">
	<advance width="530"/>
	<outline>
		<contour>
			<point x="445" y="65" type="line"/>
			<point x="505" y="-107" type="line"/>
			<point x="525" y="-107" type="line"/>
			<point x="525" y="65" type="line"/>
		</contour>
		<component base="uni0428.2"/>
	</outline>
</glyph>
<glyph name="uni0429.4" format="2">
	<advance width="375"/>
	<outline>
		<contour>
			<point x="140" y="65" type="line"/>
			<point x="123" y="0" type="line"/>
			<point x="251" y="0" type="line"/>
			<point x="375" y="730" type="line"/>
			<point x="287" y="730" type="line"/>
			<point x="243" y="319" type="line"/>
			<point x="229" y="65" type="line"/>
		</contour>
		<contour>
			<point x="0" y="730" type="line"/>
			<point x="123" y="0" type="line"/>
			<point x="251" y="0" type="line"/>
			<point x="143" y="65" type="line"/>
			<point x="90" y="730" type="line"/>
		</contour>
		<contour>
			<point x="144" y="730" type="line"/>
			<point x="173" y="64" type="line"/>
			<point x="201" y="64" type="line"/>
			<point x="229" y="730" type="line"/>
		</contour>
		<contour>
			<point x="220" y="65" type="line"/>
			<point x="272" y="-107" type="line"/>
			<point x="292" y="-107" type="line"/>
			<point x="292" y="65" type="line"/>
		</contour>
	</outline>
</glyph>
<glyph name="uni042F.2" format="2">
	<advance width="286"/>
	<outline>
		<contour>
			<point x="181" y="0" type="line"/>
			<point x="181" y="730" type="line"/>
			<point x="256" y="730" type="line"/>
			<point x="256" y="0" type="line"/>
		</contour>
		<contour>
			<point x="162" y="174" type="curve"/>
			<point x="215" y="174" type="line"/>
			<point x="214" y="156" type="line"/>
			<point x="158" y="156" type="line" smooth="yes"/>
			<point x="86" y="156"/>
			<point x="30" y="190"/>
			<point x="30" y="280" type="curve"/>
			<point x="30" y="604" type="line" smooth="yes"/>
			<point x="30" y="695"/>
			<point x="80" y="730"/>
			<point x="166" y="730" type="curve"/>
			<point x="215" y="730" type="line"/>
			<point x="215" y="662" type="line"/>
			<point x="215" y="662"/>
			<point x="173" y="662"/>
			<point x="173" y="662" type="curve"/>
			<point x="123" y="662"/>
			<point x="105" y="644"/>
			<point x="105" y="579" type="curve"/>
			<point x="105" y="250" type="line" smooth="yes"/>
			<point x="105" y="205"/>
			<point x="114" y="174"/>
		</contour>
		<contour>
			<point x="-155" y="-67" type="curve" smooth="yes"/>
			<point x="-75" y="-67"/>
			<point x="-13" y="-21"/>
			<point x="66" y="157" type="curve"/>
			<point x="117" y="157" type="line"/>
			<point x="121" y="174" type="line"/>
			<point x="184" y="174" type="line"/>
			<point x="181" y="154" type="line"/>
			<point x="139" y="153"/>
			<point x="121" y="144"/>
			<point x="108" y="116" type="curve"/>
			<point x="22" y="-79"/>
			<point x="-55" y="-130"/>
			<point x="-137" y="-130" type="curve"/>
			<point x="-228" y="-130"/>
			<point x="-249" y="-85"/>
			<point x="-246" y="-27" type="curve"/>
			<point x="-243" y="24" type="line"/>
			<point x="-229" y="24" type="line"/>
			<point x="-226" y="-31" type="line" smooth="yes"/>
			<point x="-225" y="-57"/>
			<point x="-205" y="-67"/>
		</contour>
	</outline>
</glyph>
<glyph name="uni04380439" format="2">
	<advance width="536"/>
	<outline>
		<contour>
			<point x="324" y="0" type="line"/>
			<point x="440" y="600" type="line"/>
			<point x="467" y="600" type="line"/>
			<point x="352" y="0" type="line"/>
		</contour>
		<contour>
			<point x="443" y="477" type="line"/>
			<point x="451" y="600" type="line"/>
			<point x="511" y="600" type="line"/>
			<point x="511" y="0" type="line"/>
			<point x="440" y="0" type="line"/>
			<point x="446" y="246" type="line"/>
			<point x="460" y="477" type="line"/>
		</contour>
		<contour>
			<point x="196" y="0" type="line"/>
			<point x="312" y="600" type="line"/>
			<point x="339" y="600" type="line"/>
			<point x="224" y="0" type="line"/>
		</contour>
		<contour>
			<point x="323" y="600" type="line"/>
			<point x="366" y="600" type="line"/>
			<point x="332" y="123" type="line"/>
			<point x="349" y="123" type="line"/>
			<point x="341" y="0" type="line"/>
			<point x="299" y="0" type="line"/>
			<point x="332" y="477" type="line"/>
			<point x="315" y="477" type="line"/>
		</contour>
		<contour>
			<point x="68" y="0" type="line"/>
			<point x="184" y="600" type="line"/>
			<point x="211" y="600" type="line"/>
			<point x="96" y="0" type="line"/>
		</contour>
		<contour>
			<point x="93" y="123" type="line"/>
			<point x="85" y="0" type="line"/>
			<point x="25" y="0" type="line"/>
			<point x="25" y="600" type="line"/>
			<point x="97" y="600" type="line"/>
			<point x="90" y="354" type="line"/>
			<point x="76" y="123" type="line"/>
		</contour>
		<contour>
			<point x="195" y="600" type="line"/>
			<point x="238" y="600" type="line"/>
			<point x="204" y="123" type="line"/>
			<point x="221" y="123" type="line"/>
			<point x="213" y="0" type="line"/>
			<point x="171" y="0" type="line"/>
			<point x="204" y="477" type="line"/>
			<point x="187" y="477" type="line"/>
		</contour>
		<contour>
			<point x="502" y="730" type="line"/>
			<point x="432" y="730" type="line"/>
			<point x="434" y="720" type="line" smooth="yes"/>
			<point x="443" y="675"/>
			<point x="434" y="650"/>
			<point x="402" y="650" type="curve"/>
			<point x="370" y="650"/>
			<point x="361" y="675"/>
			<point x="370" y="720" type="curve"/>
			<point x="372" y="730" type="line"/>
			<point x="302" y="730" type="line"/>
			<point x="302" y="720" type="line" smooth="yes"/>
			<point x="302" y="667"/>
			<point x="338" y="637"/>
			<point x="402" y="636" type="curve"/>
			<point x="466" y="635"/>
			<point x="502" y="665"/>
			<point x="502" y="720" type="curve"/>
		</contour>
	</outline>
</glyph>
<glyph name="uni043C.2" format="2">
	<advance width="514"/>
	<outline>
		<contour>
			<point x="394" y="392" type="line"/>
			<point x="415" y="600" type="line"/>
			<point x="469" y="600" type="line"/>
			<point x="479" y="0" type="line"/>
			<point x="407" y="0" type="line"/>
			<point x="420" y="392" type="line"/>
		</contour>
		<contour>
			<point x="53" y="600" type="line"/>
			<point x="112" y="600" type="line"/>
			<point x="190" y="187" type="line"/>
			<point x="201" y="187" type="line"/>
			<point x="193" y="0" type="line"/>
			<point x="172" y="0" type="line"/>
		</contour>
		<contour>
			<point x="201" y="187" type="line"/>
			<point x="243" y="600" type="line"/>
			<point x="282" y="600" type="line"/>
			<point x="247" y="425" type="line"/>
			<point x="201" y="0" type="line"/>
			<point x="172" y="0" type="line"/>
		</contour>
		<contour>
			<point x="234" y="377" type="line"/>
			<point x="282" y="600" type="line"/>
			<point x="340" y="187" type="line"/>
			<point x="352" y="187" type="line"/>
			<point x="343" y="0" type="line"/>
			<point x="314" y="0" type="line"/>
			<point x="253" y="377" type="line"/>
		</contour>
		<contour>
			<point x="352" y="187" type="line"/>
			<point x="415" y="600" type="line"/>
			<point x="435" y="600" type="line"/>
			<point x="343" y="0" type="line"/>
			<point x="316" y="0" type="line"/>
		</contour>
		<contour>
			<point x="45" y="600" type="line"/>
			<point x="107" y="600" type="line"/>
			<point x="102" y="392" type="line"/>
			<point x="79" y="392" type="line"/>
			<point x="106" y="0" type="line"/>
			<point x="35" y="0" type="line"/>
		</contour>
	</outline>
</glyph>
<glyph name="uni043C.3" format="2">
	<advance width="664"/>
	<outline>
		<contour>
			<point x="53" y="600" type="line"/>
			<point x="112" y="600" type="line"/>
			<point x="192" y="187" type="line"/>
			<point x="203" y="187" type="line"/>
			<point x="193" y="0" type="line"/>
			<point x="172" y="0" type="line"/>
		</contour>
		<contour>
			<point x="203" y="187" type="line"/>
			<point x="247" y="600" type="line"/>
			<point x="282" y="600" type="line"/>
			<point x="248" y="415" type="line"/>
			<point x="203" y="0" type="line"/>
			<point x="172" y="0" type="line"/>
		</contour>
		<contour>
			<point x="240" y="387" type="line"/>
			<point x="282" y="600" type="line"/>
			<point x="342" y="187" type="line"/>
			<point x="353" y="187" type="line"/>
			<point x="345" y="0" type="line"/>
			<point x="314" y="0" type="line"/>
			<point x="256" y="387" type="line"/>
		</contour>
		<contour>
			<point x="353" y="187" type="line"/>
			<point x="397" y="600" type="line"/>
			<point x="432" y="600" type="line"/>
			<point x="398" y="415" type="line"/>
			<point x="353" y="0" type="line"/>
			<point x="322" y="0" type="line"/>
		</contour>
		<contour>
			<point x="390" y="387" type="line"/>
			<point x="432" y="600" type="line"/>
			<point x="492" y="187" type="line"/>
			<point x="503" y="187" type="line"/>
			<point x="495" y="0" type="line"/>
			<point x="464" y="0" type="line"/>
			<point x="406" y="387" type="line"/>
		</contour>
		<contour>
			<point x="503" y="187" type="line"/>
			<point x="565" y="600" type="line"/>
			<point x="587" y="600" type="line"/>
			<point x="495" y="0" type="line"/>
			<point x="464" y="0" type="line"/>
		</contour>
		<contour>
			<point x="45" y="600" type="line"/>
			<point x="107" y="600" type="line"/>
			<point x="102" y="392" type="line"/>
			<point x="79" y="392" type="line"/>
			<point x="106" y="0" type="line"/>
			<point x="35" y="0" type="line"/>
		</contour>
		<contour>
			<point x="544" y="392" type="line"/>
			<point x="568" y="600" type="line"/>
			<point x="619" y="600" type="line"/>
			<point x="629" y="0" type="line"/>
			<point x="557" y="0" type="line"/>
			<point x="570" y="392" type="line"/>
		</contour>
	</outline>
</glyph>
<glyph name="uni0448.4" format="2">
	<advance width="365"/>
	<outline>
		<contour>
			<point x="135" y="65" type="line"/>
			<point x="118" y="0" type="line"/>
			<point x="246" y="0" type="line"/>
			<point x="360" y="600" type="line"/>
			<point x="282" y="600" type="line"/>
			<point x="245" y="319" type="line"/>
			<point x="224" y="65" type="line"/>
		</contour>
		<contour>
			<point x="5" y="600" type="line"/>
			<point x="118" y="0" type="line"/>
			<point x="246" y="0" type="line"/>
			<point x="138" y="65" type="line"/>
			<point x="85" y="600" type="line"/>
		</contour>
		<contour>
			<point x="144" y="600" type="line"/>
			<point x="168" y="64" type="line"/>
			<point x="196" y="64" type="line"/>
			<point x="219" y="600" type="line"/>
		</contour>
	</outline>
</glyph>
<glyph name="uni0449.2" format="2">
	<advance width="509"/>
	<outline>
		<contour>
			<point x="429" y="65" type="line"/>
			<point x="484" y="-97" type="line"/>
			<point x="504" y="-97" type="line"/>
			<point x="504" y="65" type="line"/>
		</contour>
		<component base="uni0448.2"/>
	</outline>
</glyph>
<glyph name="uni0449.3" format="2">
	<advance width="632"/>
	<outline>
		<contour>
			<point x="552" y="65" type="line"/>
			<point x="607" y="-97" type="line"/>
			<point x="627" y="-97" type="line"/>
			<point x="627" y="65" type="line"/>
		</contour>
		<component base="uni0448.3"/>
	</outline>
</glyph>
<glyph name="uni0449.4" format="2">
	<advance width="365"/>
	<outline>
		<contour>
			<point x="213" y="65" type="line"/>
			<point x="268" y="-97" type="line"/>
			<point x="288" y="-97" type="line"/>
			<point x="288" y="65" type="line"/>
		</contour>
		<component base="uni0448.4"/>
	</outline>
</glyph>
<glyph name="upperlefttolowrightfill" format="2">
	<advance width="770"/>
	<anchor x="257" y="760" name="top"/>
	<outline>
		<contour>
			<point x="20" y="234" type="line"/>
			<point x="20" y="261" type="line"/>
			<point x="750" y="377" type="line"/>
			<point x="750" y="349" type="line"/>
		</contour>
		<contour>
			<point x="627" y="369" type="line"/>
			<point x="20" y="326" type="line"/>
			<point x="20" y="369" type="line"/>
			<point x="143" y="377" type="line"/>
			<point x="143" y="360" type="line"/>
			<point x="750" y="402" type="line"/>
			<point x="750" y="360" type="line"/>
			<point x="627" y="352" type="line"/>
		</contour>
		<contour>
			<point x="20" y="353" type="line"/>
			<point x="20" y="380" type="line"/>
			<point x="750" y="496" type="line"/>
			<point x="750" y="468" type="line"/>
		</contour>
		<contour>
			<point x="627" y="488" type="line"/>
			<point x="20" y="445" type="line"/>
			<point x="20" y="488" type="line"/>
			<point x="143" y="496" type="line"/>
			<point x="143" y="479" type="line"/>
			<point x="750" y="521" type="line"/>
			<point x="750" y="479" type="line"/>
			<point x="627" y="471" type="line"/>
		</contour>
		<contour>
			<point x="20" y="472" type="line"/>
			<point x="20" y="499" type="line"/>
			<point x="750" y="615" type="line"/>
			<point x="750" y="587" type="line"/>
		</contour>
		<contour>
			<point x="627" y="607" type="line"/>
			<point x="20" y="564" type="line"/>
			<point x="20" y="607" type="line"/>
			<point x="143" y="615" type="line"/>
			<point x="143" y="598" type="line"/>
			<point x="750" y="640" type="line"/>
			<point x="750" y="598" type="line"/>
			<point x="627" y="590" type="line"/>
		</contour>
		<contour>
			<point x="20" y="591" type="line"/>
			<point x="20" y="618" type="line"/>
			<point x="750" y="734" type="line"/>
			<point x="750" y="706" type="line"/>
		</contour>
		<contour>
			<point x="20" y="-4" type="line"/>
			<point x="20" y="23" type="line"/>
			<point x="750" y="139" type="line"/>
			<point x="750" y="111" type="line"/>
		</contour>
		<contour>
			<point x="627" y="131" type="line"/>
			<point x="20" y="88" type="line"/>
			<point x="20" y="131" type="line"/>
			<point x="143" y="139" type="line"/>
			<point x="143" y="122" type="line"/>
			<point x="750" y="164" type="line"/>
			<point x="750" y="122" type="line"/>
			<point x="627" y="114" type="line"/>
		</contour>
		<contour>
			<point x="20" y="115" type="line"/>
			<point x="20" y="142" type="line"/>
			<point x="750" y="258" type="line"/>
			<point x="750" y="230" type="line"/>
		</contour>
		<contour>
			<point x="627" y="250" type="line"/>
			<point x="20" y="207" type="line"/>
			<point x="20" y="250" type="line"/>
			<point x="143" y="258" type="line"/>
			<point x="143" y="241" type="line"/>
			<point x="750" y="283" type="line"/>
			<point x="750" y="241" type="line"/>
			<point x="627" y="233" type="line"/>
		</contour>
	</outline>
</glyph>
<glyph name="zero.slash" format="2">
	<advance width="286"/>
	<anchor x="147" y="760" name="top"/>
	<outline>
		<contour>
			<point x="208" y="602" type="line"/>
			<point x="102" y="137" type="line"/>
			<point x="82" y="137" type="line"/>
			<point x="188" y="602" type="line"/>
		</contour>
		<component base="zero"/>
	</outline>
</glyph>
